<svg xmlns="http://www.w3.org/2000/svg" xmlns:xlink="http://www.w3.org/1999/xlink" width="729.772" height="724.686" viewBox="0 0 729.772 724.686"><defs><linearGradient id="a" y1="0.5" x2="1" y2="0.5" gradientUnits="objectBoundingBox"><stop offset="0" stop-color="#8bbbff"/><stop offset="1" stop-color="#0260f5"/></linearGradient><linearGradient id="d" x1="-0.221" y1="0.5" x2="0.779" y2="0.5" xlink:href="#a"/><linearGradient id="k" x1="0.136" y1="0.839" x2="0.973" y2="-0.924" xlink:href="#a"/><linearGradient id="l" x1="0" y1="0.5" x2="1" y2="0.5" xlink:href="#a"/><linearGradient id="m" x1="0" y1="0.5" x2="1" y2="0.5" xlink:href="#a"/><linearGradient id="n" x1="0" y1="0.5" x2="1" y2="0.5" xlink:href="#a"/><linearGradient id="y" x1="0" y1="0.5" x2="1" y2="0.5" xlink:href="#a"/><linearGradient id="z" x1="0" y1="0.5" x2="1" y2="0.5" xlink:href="#a"/><linearGradient id="ao" x1="0" y1="0.5" x2="1" y2="0.5" xlink:href="#a"/><linearGradient id="ba" x1="0.136" y1="0.839" x2="0.973" y2="-0.924" xlink:href="#a"/><linearGradient id="bb" x1="0" y1="0.5" x2="1" y2="0.5" xlink:href="#a"/><linearGradient id="bc" x1="0" y1="0.5" x2="1" y2="0.5" xlink:href="#a"/><linearGradient id="bd" x1="0" y1="0.5" x2="1" y2="0.5" xlink:href="#a"/><linearGradient id="ci" x1="-51.643" y1="0.5" x2="-50.643" y2="0.5" gradientUnits="objectBoundingBox"><stop offset="0" stop-color="#579cff"/><stop offset="1" stop-color="#0f27b7"/></linearGradient><linearGradient id="cj" x1="-121.036" y1="0.5" x2="-120.036" y2="0.5" xlink:href="#ci"/><linearGradient id="ck" x1="-86.072" y1="0.5" x2="-85.072" y2="0.5" xlink:href="#ci"/><linearGradient id="cl" x1="-1317.575" y1="0.5" x2="-1316.575" y2="0.5" xlink:href="#ci"/><linearGradient id="cm" x1="-90.075" y1="0.5" x2="-89.075" y2="0.5" xlink:href="#ci"/><linearGradient id="cn" x1="-52.518" y1="0.5" x2="-51.518" y2="0.5" xlink:href="#a"/><linearGradient id="co" x1="-95.209" y1="0.5" x2="-94.209" y2="0.5" gradientUnits="objectBoundingBox"><stop offset="0" stop-color="#8bbbff"/><stop offset="1" stop-color="#4f84f7"/></linearGradient><linearGradient id="cp" x1="-93.597" y1="0.5" x2="-92.597" y2="0.5" xlink:href="#ci"/><linearGradient id="cq" x1="-75.391" y1="0.5" x2="-74.391" y2="0.5" xlink:href="#ci"/><linearGradient id="cr" x1="-78.518" y1="0.5" x2="-77.518" y2="0.5" xlink:href="#a"/><linearGradient id="cs" x1="14.597" y1="1.197" x2="15.663" y2="0.178" gradientUnits="objectBoundingBox"><stop offset="0" stop-color="#f3e5ff"/><stop offset="1" stop-color="#deafff"/></linearGradient><linearGradient id="ct" x1="122.519" y1="0.5" x2="123.519" y2="0.5" gradientUnits="objectBoundingBox"><stop offset="0" stop-color="#579cff"/><stop offset="1" stop-color="#0260f5"/></linearGradient><linearGradient id="cu" x1="43.044" y1="0.5" x2="44.044" y2="0.5" xlink:href="#ct"/><linearGradient id="cv" x1="13.755" y1="0.174" x2="15.01" y2="2.405" xlink:href="#a"/><linearGradient id="cw" x1="67.834" y1="0.5" x2="68.834" y2="0.5" xlink:href="#ct"/><linearGradient id="cx" x1="92.444" y1="0.5" x2="93.444" y2="0.5" xlink:href="#ct"/><linearGradient id="cy" x1="15.229" y1="0.227" x2="15.96" y2="1.752" xlink:href="#a"/><linearGradient id="cz" x1="128.401" y1="0.5" x2="129.401" y2="0.5" xlink:href="#ct"/><linearGradient id="da" x1="11.57" y1="0.145" x2="12.883" y2="1.908" xlink:href="#a"/><linearGradient id="db" x1="12.552" y1="0.133" x2="13.918" y2="2.904" xlink:href="#a"/><linearGradient id="dc" x1="123.074" y1="0.5" x2="124.074" y2="0.5" xlink:href="#ct"/><linearGradient id="dd" x1="16.731" y1="0.148" x2="17.485" y2="1.982" xlink:href="#a"/><linearGradient id="de" x1="76.792" y1="0.5" x2="77.792" y2="0.5" xlink:href="#ct"/><linearGradient id="df" x1="4.67" y1="0.046" x2="3.79" y2="1.28" xlink:href="#a"/></defs><g transform="translate(1798.835 -2255.871)"><g transform="translate(-1630.901 2250.871)"><g transform="translate(102.656 139.043)" opacity="0.16"><path d="M-1550.2,2580.563l6.385,25.479a145.217,145.217,0,0,0,34.922.043l6.368-25.5a125.653,125.653,0,0,0,15.031-4.049l18.237,18.824a146.985,146.985,0,0,0,30.223-17.48l-7.21-25.22a129.614,129.614,0,0,0,11.02-10.986l25.2,7.183a143.439,143.439,0,0,0,17.412-30.27l-18.842-18.214c1.217-3.612,2.29-7.323,3.162-11.1.328-1.307.565-2.6.84-3.916l25.445-6.409a144.032,144.032,0,0,0,.03-34.9l-25.5-6.357a117.063,117.063,0,0,0-4.03-15.039l18.823-18.246a147.292,147.292,0,0,0-17.465-30.231l-25.232,7.217a123.03,123.03,0,0,0-10.993-11l7.187-25.213a145.287,145.287,0,0,0-30.253-17.443l-18.216,18.875c-3.618-1.228-7.3-2.281-11.1-3.177-1.318-.3-2.625-.558-3.925-.81l-6.379-25.468a145.033,145.033,0,0,0-34.933-.024l-6.347,25.5a115.982,115.982,0,0,0-15.03,4.027l-18.254-18.823a145.47,145.47,0,0,0-30.217,17.485l7.236,25.221a121.815,121.815,0,0,0-11.025,10.969l-25.209-7.178a144.09,144.09,0,0,0-17.425,30.274l18.864,18.218c-1.219,3.62-2.3,7.308-3.194,11.094-.3,1.318-.554,2.605-.8,3.93l-25.466,6.385a145.3,145.3,0,0,0-.015,34.911l25.477,6.359a123.363,123.363,0,0,0,4.032,15.031l-18.815,18.231a145.992,145.992,0,0,0,17.47,30.244l25.228-7.23a117.6,117.6,0,0,0,10.98,11.027l-7.183,25.21a144.063,144.063,0,0,0,30.249,17.418l18.233-18.842c3.61,1.2,7.319,2.285,11.1,3.179C-1552.8,2580.085-1551.5,2580.3-1550.2,2580.563Zm-34.664-132.642a60.014,60.014,0,0,1,72.1-44.742,59.977,59.977,0,0,1,44.735,72.089,59.981,59.981,0,0,1-72.089,44.748A60.027,60.027,0,0,1-1584.86,2447.921Z" transform="translate(1671.916 -2316.088)" fill="url(#a)"/></g><g transform="translate(0 5)" opacity="0.16"><path d="M-1640.7,2423.326l4.164,16.615a94.728,94.728,0,0,0,22.772.026l4.153-16.625a82.014,82.014,0,0,0,9.8-2.639l11.892,12.273a95.7,95.7,0,0,0,19.706-11.4l-4.7-16.446a84.443,84.443,0,0,0,7.185-7.161l16.431,4.682a93.375,93.375,0,0,0,11.353-19.738l-12.287-11.875c.793-2.356,1.493-4.775,2.062-7.24.215-.853.369-1.7.548-2.554l16.594-4.179a93.943,93.943,0,0,0,.017-22.754l-16.623-4.147a76.739,76.739,0,0,0-2.629-9.8l12.274-11.9a96.039,96.039,0,0,0-11.387-19.713l-16.455,4.705a80.018,80.018,0,0,0-7.165-7.172l4.684-16.442a94.705,94.705,0,0,0-19.728-11.374l-11.877,12.308c-2.358-.8-4.761-1.489-7.238-2.073-.86-.2-1.71-.365-2.561-.528l-4.157-16.607a94.615,94.615,0,0,0-22.78-.015l-4.136,16.626a75.532,75.532,0,0,0-9.8,2.626l-11.9-12.274a95.073,95.073,0,0,0-19.706,11.4l4.72,16.448a79.15,79.15,0,0,0-7.189,7.153l-16.437-4.681a93.963,93.963,0,0,0-11.361,19.74l12.3,11.879c-.795,2.36-1.5,4.767-2.083,7.236-.194.857-.36,1.7-.52,2.563l-16.606,4.162a94.788,94.788,0,0,0-.01,22.765l16.612,4.147a80.479,80.479,0,0,0,2.629,9.8l-12.267,11.887a95.205,95.205,0,0,0,11.391,19.721l16.449-4.714a76.667,76.667,0,0,0,7.161,7.189l-4.684,16.44a93.969,93.969,0,0,0,19.725,11.357l11.888-12.285c2.354.783,4.771,1.488,7.238,2.07C-1642.4,2423.015-1641.545,2423.155-1640.7,2423.326Zm-22.6-86.493a39.135,39.135,0,0,1,47.017-29.174,39.11,39.11,0,0,1,29.172,47.006,39.114,39.114,0,0,1-47.009,29.179A39.143,39.143,0,0,1-1663.3,2336.833Z" transform="translate(1720.066 -2250.87)" fill="url(#a)"/></g><circle cx="8.528" cy="8.528" r="8.528" transform="translate(219.896 94.884)" fill="rgba(0,105,255,0.1)"/><circle cx="10.66" cy="10.66" r="10.66" transform="translate(254.008 45.849)" fill="rgba(0,105,255,0.2)"/><circle cx="8.528" cy="8.528" r="8.528" transform="translate(211.368 9.605)" fill="rgba(0,105,255,0.25)"/></g><g transform="translate(-1601.407 2408.561)"><g transform="translate(0 286.729)"><path d="M-1513.583,2515.957V2500.83h-39.024l-46.136-26.637c-6.159-3.556-16.913-3.109-24.023,1l-44.414,25.641h-39.052v15.983h.032c-.175,2.407,1.166,4.729,4.125,6.437l81.035,46.785c6.157,3.556,16.913,3.11,24.023-1l77.583-44.791C-1515.334,2521.879-1513.355,2518.811-1513.583,2515.957Z" transform="translate(1706.232 -2445.208)" fill="url(#a)"/><path d="M-1513.583,2515.957V2500.83h-39.024l-46.136-26.637c-6.159-3.556-16.913-3.109-24.023,1l-44.414,25.641h-39.052v15.983h.032c-.175,2.407,1.166,4.729,4.125,6.437l81.035,46.785c6.157,3.556,16.913,3.11,24.023-1l77.583-44.791C-1515.334,2521.879-1513.355,2518.811-1513.583,2515.957Z" transform="translate(1706.232 -2445.208)" opacity="0.5" fill="url(#d)"/><path d="M-1649.892,2474.188a21.743,21.743,0,0,0-11.155-2.381v100.606a27.707,27.707,0,0,0,12.881-3.379l77.583-44.791c4.1-2.369,6.078-5.437,5.85-8.291v-15.126h-39.024Z" transform="translate(1757.381 -2445.203)" fill="url(#a)"/><path d="M-1621.04,2568.167l-81.035-46.785c-6.157-3.556-5.385-9.764,1.725-13.871l77.583-44.791c7.11-4.106,17.864-4.552,24.023-1l81.034,46.785c6.157,3.556,5.385,9.765-1.725,13.87l-77.583,44.791C-1604.127,2571.277-1614.883,2571.722-1621.04,2568.167Z" transform="translate(1706.232 -2459.324)" fill="url(#a)"/><path d="M-1621.04,2568.167l-81.035-46.785c-6.157-3.556-5.385-9.764,1.725-13.871l77.583-44.791c7.11-4.106,17.864-4.552,24.023-1l81.034,46.785c6.157,3.556,5.385,9.765-1.725,13.87l-77.583,44.791C-1604.127,2571.277-1614.883,2571.722-1621.04,2568.167Z" transform="translate(1706.232 -2459.324)" opacity="0.5" fill="url(#a)"/><path d="M-1628.812,2552.088l-65.29-37.7c-4.961-2.863-4.339-7.867,1.39-11.174l62.508-36.09c5.729-3.306,14.4-3.667,19.356-.8l65.29,37.7c4.961,2.863,4.339,7.867-1.39,11.174l-62.508,36.09C-1615.185,2554.593-1623.852,2554.953-1628.812,2552.088Z" transform="translate(1716.171 -2453.586)" fill="url(#a)"/><path d="M-1692.714,2508.107l62.508-36.088c5.729-3.309,14.4-3.667,19.356-.8l65.29,37.7a7.281,7.281,0,0,1,2.656,2.456c1.441-2.646.61-5.46-2.656-7.345l-65.29-37.7c-4.961-2.865-13.628-2.505-19.356.8l-62.508,36.09c-4.315,2.49-5.729,5.942-4.049,8.718A10.377,10.377,0,0,1-1692.714,2508.107Z" transform="translate(1716.172 -2453.586)" fill="url(#a)"/><path d="M-1618.32,2568.16l-81.035-46.785c-6.157-3.556-7.628-8.777,1.725-13.871l77.583-44.791a27.462,27.462,0,0,1,12.155-3.356,28.186,28.186,0,0,0-14.875,3.356l-77.583,44.791c-7.11,4.106-7.882,10.314-1.725,13.871l81.035,46.785c3.13,1.808,7.447,2.575,11.869,2.36A20.412,20.412,0,0,1-1618.32,2568.16Z" transform="translate(1706.232 -2459.317)" opacity="0.5" fill="url(#a)"/><path d="M-1519.433,2496.471l-77.583,44.791c-7.11,4.106-17.866,4.552-24.023,1l-81.035-46.784c-2.959-1.708-4.3-4.032-4.125-6.437h-.032v3.313h.032c-.175,2.405,1.166,4.727,4.125,6.435l81.035,46.787c6.157,3.556,16.913,3.107,24.023-1l77.583-44.793c4.1-2.367,6.078-5.435,5.85-8.289v-3.313C-1513.355,2491.035-1515.334,2494.1-1519.433,2496.471Z" transform="translate(1706.232 -2426.659)" opacity="0.5" fill="url(#k)"/><g transform="translate(168.862 59.259)"><path d="M-1623.162,2490.2a.975.975,0,0,1,0,1.848,3.544,3.544,0,0,1-3.2,0,.975.975,0,0,1,0-1.848A3.532,3.532,0,0,1-1623.162,2490.2Z" transform="translate(1627.028 -2484.061)" fill="url(#l)"/><path d="M-1620.822,2488.853a.976.976,0,0,1,0,1.849,3.531,3.531,0,0,1-3.2,0,.976.976,0,0,1,0-1.849A3.531,3.531,0,0,1-1620.822,2488.853Z" transform="translate(1629.677 -2485.59)" fill="url(#m)"/><path d="M-1618.483,2487.5a.977.977,0,0,1,0,1.85,3.538,3.538,0,0,1-3.2,0,.975.975,0,0,1,0-1.848A3.545,3.545,0,0,1-1618.483,2487.5Z" transform="translate(1632.324 -2487.119)" fill="url(#n)"/></g></g><g transform="translate(0 229.383)"><path d="M-1513.583,2489.059v-15.127h-39.024l-46.136-26.637c-6.159-3.554-16.913-3.109-24.023,1l-44.414,25.641h-39.052v15.984h.032c-.175,2.407,1.166,4.729,4.125,6.437l81.035,46.784c6.157,3.556,16.913,3.111,24.023-1l77.583-44.791C-1515.334,2494.981-1513.355,2491.913-1513.583,2489.059Z" transform="translate(1706.232 -2418.31)" fill="url(#a)"/><path d="M-1513.583,2489.059v-15.127h-39.024l-46.136-26.637c-6.159-3.554-16.913-3.109-24.023,1l-44.414,25.641h-39.052v15.984h.032c-.175,2.407,1.166,4.729,4.125,6.437l81.035,46.784c6.157,3.556,16.913,3.111,24.023-1l77.583-44.791C-1515.334,2494.981-1513.355,2491.913-1513.583,2489.059Z" transform="translate(1706.232 -2418.31)" opacity="0.5" fill="url(#d)"/><path d="M-1649.892,2447.29a21.745,21.745,0,0,0-11.155-2.382v100.607a27.708,27.708,0,0,0,12.881-3.379l77.583-44.791c4.1-2.369,6.078-5.437,5.85-8.291v-15.127h-39.024Z" transform="translate(1757.381 -2418.304)" fill="url(#a)"/><path d="M-1621.04,2541.268l-81.035-46.784c-6.157-3.556-5.385-9.764,1.725-13.87l77.583-44.791c7.11-4.106,17.864-4.552,24.023-1l81.034,46.785c6.157,3.556,5.385,9.764-1.725,13.87l-77.583,44.791C-1604.127,2544.379-1614.883,2544.824-1621.04,2541.268Z" transform="translate(1706.232 -2432.426)" fill="url(#a)"/><path d="M-1621.04,2541.268l-81.035-46.784c-6.157-3.556-5.385-9.764,1.725-13.87l77.583-44.791c7.11-4.106,17.864-4.552,24.023-1l81.034,46.785c6.157,3.556,5.385,9.764-1.725,13.87l-77.583,44.791C-1604.127,2544.379-1614.883,2544.824-1621.04,2541.268Z" transform="translate(1706.232 -2432.426)" opacity="0.5" fill="url(#a)"/><path d="M-1628.812,2525.189l-65.29-37.7c-4.961-2.863-4.339-7.867,1.39-11.174l62.508-36.09c5.729-3.307,14.4-3.665,19.356-.8l65.29,37.7c4.961,2.863,4.339,7.867-1.39,11.174l-62.508,36.09C-1615.185,2527.694-1623.852,2528.055-1628.812,2525.189Z" transform="translate(1716.171 -2426.687)" fill="url(#a)"/><path d="M-1692.714,2481.209l62.508-36.088c5.729-3.309,14.4-3.667,19.356-.8l65.29,37.7a7.274,7.274,0,0,1,2.656,2.456c1.441-2.646.61-5.458-2.656-7.345l-65.29-37.7c-4.961-2.863-13.628-2.505-19.356.8l-62.508,36.09c-4.315,2.49-5.729,5.942-4.049,8.718A10.381,10.381,0,0,1-1692.714,2481.209Z" transform="translate(1716.172 -2426.687)" fill="url(#a)"/><path d="M-1618.32,2541.262l-81.035-46.784c-6.157-3.556-7.628-8.778,1.725-13.87l77.583-44.791a27.491,27.491,0,0,1,12.155-3.356,28.177,28.177,0,0,0-14.875,3.356l-77.583,44.791c-7.11,4.106-7.882,10.314-1.725,13.87l81.035,46.784c3.13,1.808,7.447,2.576,11.869,2.36A20.415,20.415,0,0,1-1618.32,2541.262Z" transform="translate(1706.232 -2432.419)" opacity="0.5" fill="url(#a)"/><path d="M-1519.433,2469.573l-77.583,44.791c-7.11,4.106-17.866,4.552-24.023,1l-81.035-46.784c-2.959-1.708-4.3-4.032-4.125-6.436h-.032v3.313h.032c-.175,2.4,1.166,4.727,4.125,6.437l81.035,46.783c6.157,3.556,16.913,3.109,24.023-1l77.583-44.793c4.1-2.366,6.078-5.435,5.85-8.289v-3.313C-1513.355,2464.139-1515.334,2467.2-1519.433,2469.573Z" transform="translate(1706.232 -2399.761)" opacity="0.5" fill="url(#k)"/><g transform="translate(168.862 59.258)"><path d="M-1623.162,2463.305a.975.975,0,0,1,0,1.848,3.547,3.547,0,0,1-3.2,0,.975.975,0,0,1,0-1.848A3.534,3.534,0,0,1-1623.162,2463.305Z" transform="translate(1627.028 -2457.162)" fill="url(#l)"/><path d="M-1620.822,2461.955a.975.975,0,0,1,0,1.848,3.531,3.531,0,0,1-3.2,0,.975.975,0,0,1,0-1.848A3.531,3.531,0,0,1-1620.822,2461.955Z" transform="translate(1629.677 -2458.692)" fill="url(#y)"/><path d="M-1618.483,2460.6a.977.977,0,0,1,0,1.851,3.547,3.547,0,0,1-3.2,0,.977.977,0,0,1,0-1.851A3.542,3.542,0,0,1-1618.483,2460.6Z" transform="translate(1632.324 -2460.22)" fill="url(#z)"/></g><path d="M-1513.588,2465.689c.143,2.808-1.825,5.8-5.846,8.123l-77.583,44.791c-7.11,4.106-17.866,4.552-24.023,1l-81.035-46.784c-2.959-1.708-4.3-4.03-4.125-6.437h-.032v41.667h.071c-.043,2.294,1.256,4.5,4.087,6.132l81.035,46.785c6.157,3.556,16.913,3.11,24.023-1l77.583-44.791c3.935-2.272,5.852-5.185,5.8-7.939l.077,0v-41.544Z" transform="translate(1706.232 -2394.772)" opacity="0.5" fill="url(#a)"/><path d="M-1570.582,2473.812l-77.583,44.793a27.7,27.7,0,0,1-12.881,3.362v41.363a27.706,27.706,0,0,0,12.881-3.365l77.583-44.791c3.935-2.272,5.852-5.185,5.8-7.939l.077,0v-41.544h-.034C-1564.594,2468.5-1566.562,2471.49-1570.582,2473.812Z" transform="translate(1757.381 -2394.772)" opacity="0.7" fill="url(#a)" style="mix-blend-mode:lighten;isolation:isolate"/><path d="M-1570.582,2473.812l-77.583,44.793a27.7,27.7,0,0,1-12.881,3.362v41.363a27.706,27.706,0,0,0,12.881-3.365l77.583-44.791c3.935-2.272,5.852-5.185,5.8-7.939l.077,0v-41.544h-.034C-1564.594,2468.5-1566.562,2471.49-1570.582,2473.812Z" transform="translate(1757.381 -2394.772)" opacity="0.2" fill="url(#a)"/><g transform="translate(107.198 90.386)" opacity="0.71"><ellipse cx="3.013" cy="1.74" rx="3.013" ry="1.74" transform="matrix(0.5, -0.866, 0.866, 0.5, 0, 46.382)" fill="#f9f9f9"/><path d="M-1647.987,2494.092a4.713,4.713,0,0,1-2.132,3.691c-1.177.677-2.13.128-2.13-1.23a4.706,4.706,0,0,1,2.13-3.69C-1648.942,2492.182-1647.987,2492.735-1647.987,2494.092Z" transform="translate(1660.142 -2454.728)" fill="#f9f9f9"/><path d="M-1644.7,2492.193a4.7,4.7,0,0,1-2.13,3.69c-1.177.68-2.132.13-2.132-1.23a4.712,4.712,0,0,1,2.132-3.69C-1645.652,2490.285-1644.7,2490.835-1644.7,2492.193Z" transform="translate(1663.864 -2456.877)" fill="#f9f9f9"/><path d="M-1591.768,2479.741l-53.679,30.992v-4.921l53.679-30.992Z" transform="translate(1667.842 -2474.821)" fill="#f9f9f9"/><g transform="translate(0.883 9.408)"><path d="M-1651.275,2500.4a4.71,4.71,0,0,1-2.132,3.69c-1.177.68-2.13.128-2.13-1.23a4.71,4.71,0,0,1,2.13-3.69C-1652.23,2498.495-1651.275,2499.045-1651.275,2500.4Z" transform="translate(1655.537 -2456.991)" fill="#f9f9f9"/><path d="M-1647.987,2498.506a4.712,4.712,0,0,1-2.132,3.69c-1.177.678-2.13.128-2.13-1.23a4.7,4.7,0,0,1,2.13-3.69C-1648.942,2496.6-1647.987,2497.146-1647.987,2498.506Z" transform="translate(1659.259 -2459.14)" fill="#f9f9f9"/><path d="M-1644.7,2496.606a4.707,4.707,0,0,1-2.13,3.69c-1.177.68-2.132.13-2.132-1.23a4.714,4.714,0,0,1,2.132-3.69C-1645.652,2494.7-1644.7,2495.248-1644.7,2496.606Z" transform="translate(1662.98 -2461.289)" fill="#f9f9f9"/><path d="M-1591.768,2484.155l-53.679,30.991v-4.92l53.679-30.992Z" transform="translate(1666.959 -2479.234)" fill="#f9f9f9"/></g><g transform="translate(0 18.817)"><ellipse cx="3.013" cy="1.74" rx="3.013" ry="1.74" transform="matrix(0.5, -0.866, 0.866, 0.5, 0, 46.382)" fill="#f9f9f9"/><path d="M-1647.987,2502.919a4.714,4.714,0,0,1-2.132,3.69c-1.177.677-2.13.128-2.13-1.23a4.7,4.7,0,0,1,2.13-3.69C-1648.942,2501.009-1647.987,2501.558-1647.987,2502.919Z" transform="translate(1660.142 -2463.554)" fill="#f9f9f9"/><path d="M-1644.7,2501.019a4.711,4.711,0,0,1-2.13,3.691c-1.177.68-2.132.128-2.132-1.23a4.714,4.714,0,0,1,2.132-3.69C-1645.652,2499.111-1644.7,2499.661-1644.7,2501.019Z" transform="translate(1663.864 -2465.703)" fill="#f9f9f9"/><path d="M-1591.768,2488.567l-53.679,30.992v-4.921l53.679-30.992Z" transform="translate(1667.842 -2483.646)" fill="#f9f9f9"/></g></g><g transform="translate(16.071 98.933)"><path d="M-1679.425,2494.143l17.979,10.381v4.018l-17.979-10.38Z" transform="translate(1720.506 -2461.496)" fill="#fff"/><path d="M-1698.694,2483.018l21.749,12.557v4.018l-21.749-12.556Z" transform="translate(1698.694 -2474.089)" fill="#fff" opacity="0.2"/><path d="M-1679.425,2489.955l17.979,10.38v4.018l-17.979-10.38Z" transform="translate(1720.506 -2466.236)" fill="#fff" opacity="0.2"/><path d="M-1685.908,2486.212l8.313,4.8v4.018l-8.313-4.8Z" transform="translate(1713.167 -2470.474)" fill="#fff"/><path d="M-1685.908,2490.4l8.313,4.8v4.018l-8.313-4.8Z" transform="translate(1713.167 -2465.733)" fill="#fff" opacity="0.2"/><path d="M-1698.694,2478.83l21.749,12.556v4.018l-21.749-12.557Z" transform="translate(1698.694 -2478.83)" fill="#fff"/></g></g><g transform="translate(0 172.037)"><path d="M-1513.583,2462.16v-15.126h-39.024l-46.136-26.637c-6.159-3.554-16.913-3.109-24.023,1l-44.414,25.642h-39.052v15.984h.032c-.175,2.407,1.166,4.729,4.125,6.437l81.035,46.786c6.157,3.555,16.913,3.109,24.023-1l77.583-44.791C-1515.334,2468.083-1513.355,2465.017-1513.583,2462.16Z" transform="translate(1706.232 -2391.412)" fill="url(#a)"/><path d="M-1513.583,2462.16v-15.126h-39.024l-46.136-26.637c-6.159-3.554-16.913-3.109-24.023,1l-44.414,25.642h-39.052v15.984h.032c-.175,2.407,1.166,4.729,4.125,6.437l81.035,46.786c6.157,3.555,16.913,3.109,24.023-1l77.583-44.791C-1515.334,2468.083-1513.355,2465.017-1513.583,2462.16Z" transform="translate(1706.232 -2391.412)" opacity="0.5" fill="url(#d)"/><path d="M-1649.892,2420.392a21.743,21.743,0,0,0-11.155-2.382v100.606a27.7,27.7,0,0,0,12.881-3.379l77.583-44.791c4.1-2.369,6.078-5.435,5.85-8.292v-15.126h-39.024Z" transform="translate(1757.381 -2391.407)" fill="url(#a)"/><path d="M-1621.04,2514.37l-81.035-46.784c-6.157-3.556-5.385-9.765,1.725-13.871l77.583-44.791c7.11-4.106,17.864-4.552,24.023-1l81.034,46.784c6.157,3.557,5.385,9.765-1.725,13.871l-77.583,44.791C-1604.127,2517.481-1614.883,2517.926-1621.04,2514.37Z" transform="translate(1706.232 -2405.528)" fill="url(#a)"/><path d="M-1621.04,2514.37l-81.035-46.784c-6.157-3.556-5.385-9.765,1.725-13.871l77.583-44.791c7.11-4.106,17.864-4.552,24.023-1l81.034,46.784c6.157,3.557,5.385,9.765-1.725,13.871l-77.583,44.791C-1604.127,2517.481-1614.883,2517.926-1621.04,2514.37Z" transform="translate(1706.232 -2405.528)" opacity="0.5" fill="url(#a)"/><path d="M-1628.812,2498.292l-65.29-37.7c-4.961-2.863-4.339-7.867,1.39-11.174l62.508-36.091c5.729-3.306,14.4-3.665,19.356-.8l65.29,37.7c4.961,2.863,4.339,7.867-1.39,11.173l-62.508,36.09C-1615.185,2500.8-1623.852,2501.157-1628.812,2498.292Z" transform="translate(1716.171 -2399.789)" fill="url(#a)"/><path d="M-1692.714,2454.311l62.508-36.088c5.729-3.307,14.4-3.667,19.356-.8l65.29,37.694a7.273,7.273,0,0,1,2.656,2.456c1.441-2.646.61-5.457-2.656-7.344l-65.29-37.7c-4.961-2.863-13.628-2.5-19.356.8l-62.508,36.091c-4.315,2.49-5.729,5.942-4.049,8.72A10.366,10.366,0,0,1-1692.714,2454.311Z" transform="translate(1716.172 -2399.789)" fill="url(#a)"/><path d="M-1618.32,2514.364l-81.035-46.784c-6.157-3.556-7.628-8.775,1.725-13.871l77.583-44.791a27.488,27.488,0,0,1,12.155-3.356,28.175,28.175,0,0,0-14.875,3.356l-77.583,44.791c-7.11,4.106-7.882,10.315-1.725,13.871l81.035,46.784c3.13,1.808,7.447,2.575,11.869,2.36A20.408,20.408,0,0,1-1618.32,2514.364Z" transform="translate(1706.232 -2405.521)" opacity="0.5" fill="url(#a)"/><path d="M-1519.433,2442.675l-77.583,44.791c-7.11,4.106-17.866,4.552-24.023,1l-81.035-46.785c-2.959-1.708-4.3-4.029-4.125-6.436h-.032v3.313h.032c-.175,2.4,1.166,4.726,4.125,6.436l81.035,46.785c6.157,3.556,16.913,3.109,24.023-1l77.583-44.793c4.1-2.366,6.078-5.434,5.85-8.289v-3.313C-1513.355,2437.241-1515.334,2440.307-1519.433,2442.675Z" transform="translate(1706.232 -2372.863)" opacity="0.5" fill="url(#k)"/><g transform="translate(168.862 59.258)"><path d="M-1623.162,2436.408a.975.975,0,0,1,0,1.848,3.546,3.546,0,0,1-3.2,0,.975.975,0,0,1,0-1.848A3.532,3.532,0,0,1-1623.162,2436.408Z" transform="translate(1627.028 -2430.264)" fill="url(#l)"/><path d="M-1620.822,2435.056a.975.975,0,0,1,0,1.848,3.533,3.533,0,0,1-3.2,0,.975.975,0,0,1,0-1.848A3.537,3.537,0,0,1-1620.822,2435.056Z" transform="translate(1629.677 -2431.794)" fill="url(#y)"/><path d="M-1618.483,2433.7a.977.977,0,0,1,0,1.851,3.545,3.545,0,0,1-3.2,0,.977.977,0,0,1,0-1.851A3.544,3.544,0,0,1-1618.483,2433.7Z" transform="translate(1632.324 -2433.323)" fill="url(#ao)"/></g><path d="M-1513.588,2438.791c.143,2.807-1.825,5.8-5.846,8.123l-77.583,44.791c-7.11,4.106-17.866,4.552-24.023,1l-81.035-46.786c-2.959-1.708-4.3-4.03-4.125-6.437h-.032v41.669l.071,0c-.043,2.294,1.256,4.5,4.087,6.132l81.035,46.784c6.157,3.556,16.913,3.111,24.023-1l77.583-44.791c3.935-2.273,5.852-5.185,5.8-7.939h.077v-41.546Z" transform="translate(1706.232 -2367.875)" opacity="0.5" fill="url(#a)"/><path d="M-1570.582,2446.914l-77.583,44.793a27.689,27.689,0,0,1-12.881,3.362v41.363a27.7,27.7,0,0,0,12.881-3.364l77.583-44.791c3.935-2.273,5.852-5.185,5.8-7.939h.077v-41.546h-.034C-1564.594,2441.6-1566.562,2444.592-1570.582,2446.914Z" transform="translate(1757.381 -2367.875)" opacity="0.7" fill="url(#a)" style="mix-blend-mode:lighten;isolation:isolate"/><path d="M-1570.582,2446.914l-77.583,44.793a27.689,27.689,0,0,1-12.881,3.362v41.363a27.7,27.7,0,0,0,12.881-3.364l77.583-44.791c3.935-2.273,5.852-5.185,5.8-7.939h.077v-41.546h-.034C-1564.594,2441.6-1566.562,2444.592-1570.582,2446.914Z" transform="translate(1757.381 -2367.875)" opacity="0.2" fill="url(#a)"/><g transform="translate(108.081 90.386)" opacity="0.72"><path d="M-1651.275,2469.092a4.707,4.707,0,0,1-2.132,3.691c-1.177.68-2.13.13-2.13-1.23a4.712,4.712,0,0,1,2.13-3.69C-1652.23,2467.184-1651.275,2467.734-1651.275,2469.092Z" transform="translate(1655.537 -2425.681)" fill="#fff"/><path d="M-1647.987,2467.194a4.712,4.712,0,0,1-2.132,3.69c-1.177.678-2.13.128-2.13-1.23a4.71,4.71,0,0,1,2.13-3.69C-1648.942,2465.284-1647.987,2465.837-1647.987,2467.194Z" transform="translate(1659.259 -2427.83)" fill="#fff"/><path d="M-1644.7,2465.3a4.7,4.7,0,0,1-2.13,3.69c-1.177.68-2.132.13-2.132-1.23a4.713,4.713,0,0,1,2.132-3.69C-1645.652,2463.387-1644.7,2463.937-1644.7,2465.3Z" transform="translate(1662.98 -2429.979)" fill="#fff"/><path d="M-1591.768,2452.843l-53.679,30.992v-4.92l53.679-30.992Z" transform="translate(1666.959 -2447.923)" fill="#fff"/><g transform="translate(0 9.408)"><path d="M-1651.275,2473.505a4.706,4.706,0,0,1-2.132,3.69c-1.177.68-2.13.13-2.13-1.23a4.709,4.709,0,0,1,2.13-3.69C-1652.23,2471.6-1651.275,2472.147-1651.275,2473.505Z" transform="translate(1655.537 -2430.094)" fill="#fff"/><path d="M-1647.987,2471.608a4.713,4.713,0,0,1-2.132,3.69c-1.177.678-2.13.128-2.13-1.23a4.708,4.708,0,0,1,2.13-3.691C-1648.942,2469.7-1647.987,2470.248-1647.987,2471.608Z" transform="translate(1659.259 -2432.243)" fill="#fff"/><path d="M-1644.7,2469.708a4.7,4.7,0,0,1-2.13,3.691c-1.177.68-2.132.13-2.132-1.23a4.714,4.714,0,0,1,2.132-3.69C-1645.652,2467.8-1644.7,2468.35-1644.7,2469.708Z" transform="translate(1662.98 -2434.391)" fill="#fff"/><path d="M-1591.768,2457.257l-53.679,30.991v-4.92l53.679-30.992Z" transform="translate(1666.959 -2452.336)" fill="#fff"/></g><g transform="translate(0 18.817)"><path d="M-1651.275,2477.918a4.707,4.707,0,0,1-2.132,3.69c-1.177.68-2.13.13-2.13-1.23a4.712,4.712,0,0,1,2.13-3.69C-1652.23,2476.01-1651.275,2476.56-1651.275,2477.918Z" transform="translate(1655.537 -2434.506)" fill="#fff"/><path d="M-1647.987,2476.021a4.714,4.714,0,0,1-2.132,3.691c-1.177.677-2.13.127-2.13-1.23a4.7,4.7,0,0,1,2.13-3.69C-1648.942,2474.11-1647.987,2474.66-1647.987,2476.021Z" transform="translate(1659.259 -2436.656)" fill="#fff"/><path d="M-1644.7,2474.121a4.7,4.7,0,0,1-2.13,3.69c-1.177.68-2.132.13-2.132-1.23a4.713,4.713,0,0,1,2.132-3.69C-1645.652,2472.213-1644.7,2472.763-1644.7,2474.121Z" transform="translate(1662.98 -2438.805)" fill="#fff"/><path d="M-1591.768,2461.669l-53.679,30.991v-4.92l53.679-30.992Z" transform="translate(1666.959 -2456.749)" fill="#fff"/></g></g><g transform="translate(16.071 98.933)"><path d="M-1679.425,2467.245l17.979,10.38v4.018l-17.979-10.38Z" transform="translate(1720.506 -2434.597)" fill="#f7f7f7"/><path d="M-1698.694,2456.12l21.749,12.557v4.018l-21.749-12.557Z" transform="translate(1698.694 -2447.191)" fill="#f7f7f7" opacity="0.2"/><path d="M-1679.425,2463.057l17.979,10.38v4.018l-17.979-10.38Z" transform="translate(1720.506 -2439.339)" fill="#f7f7f7" opacity="0.2"/><path d="M-1685.908,2459.313l8.313,4.8v4.018l-8.313-4.8Z" transform="translate(1713.167 -2443.576)" fill="#f7f7f7"/><path d="M-1685.908,2463.5l8.313,4.8v4.018l-8.313-4.8Z" transform="translate(1713.167 -2438.835)" fill="#f7f7f7" opacity="0.2"/><path d="M-1698.694,2451.932l21.749,12.557v4.018l-21.749-12.557Z" transform="translate(1698.694 -2451.932)" fill="#f7f7f7"/></g></g><g transform="translate(0 114.692)"><path d="M-1513.583,2435.264v-15.128h-39.024l-46.136-26.637c-6.159-3.554-16.913-3.109-24.023.995l-44.414,25.642h-39.052v15.984h.032c-.175,2.407,1.166,4.729,4.125,6.436l81.035,46.786c6.157,3.554,16.913,3.109,24.023-1l77.583-44.793C-1515.334,2441.185-1513.355,2438.119-1513.583,2435.264Z" transform="translate(1706.232 -2364.515)" fill="url(#a)"/><path d="M-1513.583,2435.264v-15.128h-39.024l-46.136-26.637c-6.159-3.554-16.913-3.109-24.023.995l-44.414,25.642h-39.052v15.984h.032c-.175,2.407,1.166,4.729,4.125,6.436l81.035,46.786c6.157,3.554,16.913,3.109,24.023-1l77.583-44.793C-1515.334,2441.185-1513.355,2438.119-1513.583,2435.264Z" transform="translate(1706.232 -2364.515)" opacity="0.5" fill="url(#d)"/><path d="M-1649.892,2393.495a21.77,21.77,0,0,0-11.155-2.382v100.607a27.721,27.721,0,0,0,12.881-3.377l77.583-44.793c4.1-2.368,6.078-5.434,5.85-8.29v-15.128h-39.024Z" transform="translate(1757.381 -2364.51)" fill="url(#a)"/><path d="M-1621.04,2487.474l-81.035-46.787c-6.157-3.554-5.385-9.765,1.725-13.871l77.583-44.791c7.11-4.1,17.864-4.552,24.023-1l81.034,46.784c6.157,3.556,5.385,9.765-1.725,13.871l-77.583,44.791C-1604.127,2490.583-1614.883,2491.029-1621.04,2487.474Z" transform="translate(1706.232 -2378.63)" fill="url(#a)"/><path d="M-1621.04,2487.474l-81.035-46.787c-6.157-3.554-5.385-9.765,1.725-13.871l77.583-44.791c7.11-4.1,17.864-4.552,24.023-1l81.034,46.784c6.157,3.556,5.385,9.765-1.725,13.871l-77.583,44.791C-1604.127,2490.583-1614.883,2491.029-1621.04,2487.474Z" transform="translate(1706.232 -2378.63)" opacity="0.5" fill="url(#a)"/><path d="M-1628.812,2471.394l-65.29-37.7c-4.961-2.863-4.339-7.867,1.39-11.174l62.508-36.088c5.729-3.309,14.4-3.667,19.356-.8l65.29,37.7c4.961,2.863,4.339,7.867-1.39,11.174l-62.508,36.09C-1615.185,2473.9-1623.852,2474.259-1628.812,2471.394Z" transform="translate(1716.171 -2372.892)" fill="url(#a)"/><path d="M-1692.714,2427.412l62.508-36.088c5.729-3.306,14.4-3.667,19.356-.8l65.29,37.694a7.269,7.269,0,0,1,2.656,2.456c1.441-2.646.61-5.458-2.656-7.345l-65.29-37.7c-4.961-2.863-13.628-2.505-19.356.8l-62.508,36.088c-4.315,2.49-5.729,5.942-4.049,8.72A10.369,10.369,0,0,1-1692.714,2427.412Z" transform="translate(1716.172 -2372.892)" fill="url(#a)"/><path d="M-1618.32,2487.469l-81.035-46.787c-6.157-3.554-7.628-8.775,1.725-13.871l77.583-44.791a27.5,27.5,0,0,1,12.155-3.356,28.186,28.186,0,0,0-14.875,3.356l-77.583,44.791c-7.11,4.106-7.882,10.317-1.725,13.871l81.035,46.787c3.13,1.805,7.447,2.573,11.869,2.358A20.44,20.44,0,0,1-1618.32,2487.469Z" transform="translate(1706.232 -2378.625)" opacity="0.5" fill="url(#a)"/><path d="M-1519.433,2415.777l-77.583,44.793c-7.11,4.1-17.866,4.55-24.023.994l-81.035-46.785c-2.959-1.707-4.3-4.029-4.125-6.437h-.032v3.313h.032c-.175,2.405,1.166,4.727,4.125,6.436l81.035,46.785c6.157,3.556,16.913,3.11,24.023-1l77.583-44.791c4.1-2.368,6.078-5.437,5.85-8.291v-3.314C-1513.355,2410.343-1515.334,2413.408-1519.433,2415.777Z" transform="translate(1706.232 -2345.965)" opacity="0.5" fill="url(#ba)"/><g transform="translate(168.862 59.258)"><path d="M-1623.162,2409.51a.976.976,0,0,1,0,1.849,3.547,3.547,0,0,1-3.2,0,.976.976,0,0,1,0-1.849A3.532,3.532,0,0,1-1623.162,2409.51Z" transform="translate(1627.028 -2403.367)" fill="url(#bb)"/><path d="M-1620.822,2408.158a.975.975,0,0,1,0,1.848,3.533,3.533,0,0,1-3.2,0,.975.975,0,0,1,0-1.848A3.543,3.543,0,0,1-1620.822,2408.158Z" transform="translate(1629.677 -2404.895)" fill="url(#bc)"/><path d="M-1618.483,2406.806a.977.977,0,0,1,0,1.851,3.541,3.541,0,0,1-3.2,0,.977.977,0,0,1,0-1.851A3.547,3.547,0,0,1-1618.483,2406.806Z" transform="translate(1632.324 -2406.424)" fill="url(#bd)"/></g><path d="M-1513.588,2411.893c.143,2.808-1.825,5.8-5.846,8.122l-77.583,44.793c-7.11,4.1-17.866,4.55-24.023,1l-81.035-46.786c-2.959-1.707-4.3-4.029-4.125-6.436h-.032v41.669h.071c-.043,2.293,1.256,4.5,4.087,6.132l81.035,46.784c6.157,3.556,16.913,3.111,24.023-.994l77.583-44.793c3.935-2.272,5.852-5.185,5.8-7.94h.077v-41.545Z" transform="translate(1706.232 -2340.977)" opacity="0.5" fill="url(#a)"/><path d="M-1570.582,2420.015l-77.583,44.793a27.683,27.683,0,0,1-12.881,3.362v41.363a27.689,27.689,0,0,0,12.881-3.362l77.583-44.793c3.935-2.272,5.852-5.185,5.8-7.94h.077v-41.545h-.034C-1564.594,2414.7-1566.562,2417.694-1570.582,2420.015Z" transform="translate(1757.381 -2340.977)" opacity="0.7" fill="url(#a)" style="mix-blend-mode:lighten;isolation:isolate"/><path d="M-1570.582,2420.015l-77.583,44.793a27.683,27.683,0,0,1-12.881,3.362v41.363a27.689,27.689,0,0,0,12.881-3.362l77.583-44.793c3.935-2.272,5.852-5.185,5.8-7.94h.077v-41.545h-.034C-1564.594,2414.7-1566.562,2417.694-1570.582,2420.015Z" transform="translate(1757.381 -2340.977)" opacity="0.2" fill="url(#a)"/><g transform="translate(107.198 90.386)" opacity="0.71"><g transform="translate(0.883)"><path d="M-1651.275,2442.193a4.707,4.707,0,0,1-2.132,3.69c-1.177.68-2.13.13-2.13-1.23a4.7,4.7,0,0,1,2.13-3.688C-1652.23,2440.285-1651.275,2440.835-1651.275,2442.193Z" transform="translate(1655.537 -2398.782)" fill="#fff"/><path d="M-1647.987,2440.3a4.714,4.714,0,0,1-2.132,3.69c-1.177.68-2.13.128-2.13-1.23a4.709,4.709,0,0,1,2.13-3.69C-1648.942,2438.387-1647.987,2438.939-1647.987,2440.3Z" transform="translate(1659.259 -2400.932)" fill="#fff"/><path d="M-1644.7,2438.4a4.7,4.7,0,0,1-2.13,3.69c-1.177.68-2.132.13-2.132-1.231a4.707,4.707,0,0,1,2.132-3.688C-1645.652,2436.489-1644.7,2437.038-1644.7,2438.4Z" transform="translate(1662.98 -2403.08)" fill="#fff"/><path d="M-1591.768,2425.945l-53.679,30.992v-4.92l53.679-30.992Z" transform="translate(1666.959 -2421.025)" fill="#fff"/></g><g transform="translate(0 9.408)"><ellipse cx="3.013" cy="1.74" rx="3.013" ry="1.74" transform="matrix(0.5, -0.866, 0.866, 0.5, 0, 46.382)" fill="#fff"/><path d="M-1647.987,2444.71a4.713,4.713,0,0,1-2.132,3.69c-1.177.678-2.13.128-2.13-1.23a4.712,4.712,0,0,1,2.13-3.69C-1648.942,2442.8-1647.987,2443.351-1647.987,2444.71Z" transform="translate(1660.142 -2405.344)" fill="#fff"/><path d="M-1644.7,2442.81a4.7,4.7,0,0,1-2.13,3.69c-1.177.68-2.132.13-2.132-1.23a4.714,4.714,0,0,1,2.132-3.69C-1645.652,2440.9-1644.7,2441.452-1644.7,2442.81Z" transform="translate(1663.864 -2407.494)" fill="#fff"/><path d="M-1591.768,2430.358l-53.679,30.992v-4.921l53.679-30.991Z" transform="translate(1667.842 -2425.438)" fill="#fff"/></g><g transform="translate(0.883 18.817)"><path d="M-1651.275,2451.02a4.707,4.707,0,0,1-2.132,3.691c-1.177.68-2.13.13-2.13-1.23a4.711,4.711,0,0,1,2.13-3.69C-1652.23,2449.112-1651.275,2449.662-1651.275,2451.02Z" transform="translate(1655.537 -2407.609)" fill="#fff"/><path d="M-1647.987,2449.123a4.712,4.712,0,0,1-2.132,3.69c-1.177.678-2.13.128-2.13-1.23a4.706,4.706,0,0,1,2.13-3.69C-1648.942,2447.212-1647.987,2447.765-1647.987,2449.123Z" transform="translate(1659.259 -2409.758)" fill="#fff"/><path d="M-1644.7,2447.223a4.7,4.7,0,0,1-2.13,3.69c-1.177.68-2.132.13-2.132-1.23a4.714,4.714,0,0,1,2.132-3.69C-1645.652,2445.315-1644.7,2445.865-1644.7,2447.223Z" transform="translate(1662.98 -2411.906)" fill="#fff"/><path d="M-1591.768,2434.771l-53.679,30.992v-4.92l53.679-30.992Z" transform="translate(1666.959 -2429.851)" fill="#fff"/></g></g><g transform="translate(16.071 98.933)"><path d="M-1679.425,2440.347l17.979,10.38v4.018l-17.979-10.38Z" transform="translate(1720.506 -2407.699)" fill="#fff"/><path d="M-1698.694,2429.222l21.749,12.557v4.018l-21.749-12.557Z" transform="translate(1698.694 -2420.293)" fill="#fff" opacity="0.2"/><path d="M-1679.425,2436.159l17.979,10.38v4.018l-17.979-10.38Z" transform="translate(1720.506 -2412.441)" fill="#fff" opacity="0.2"/><path d="M-1685.908,2432.416l8.313,4.8v4.018l-8.313-4.8Z" transform="translate(1713.167 -2416.678)" fill="#fff"/><path d="M-1685.908,2436.6l8.313,4.8v4.018l-8.313-4.8Z" transform="translate(1713.167 -2411.937)" fill="#fff" opacity="0.2"/><path d="M-1698.694,2425.034l21.749,12.557v4.018l-21.749-12.557Z" transform="translate(1698.694 -2425.034)" fill="#fff"/></g></g><g transform="translate(0 57.346)"><path d="M-1513.583,2408.366v-15.129h-39.024l-46.136-26.637c-6.159-3.554-16.913-3.108-24.023,1l-44.414,25.641h-39.052v15.984h.032c-.175,2.407,1.166,4.729,4.125,6.436l81.035,46.787c6.157,3.554,16.913,3.108,24.023-1l77.583-44.793C-1515.334,2414.287-1513.355,2411.222-1513.583,2408.366Z" transform="translate(1706.232 -2337.617)" fill="url(#a)"/><path d="M-1513.583,2408.366v-15.129h-39.024l-46.136-26.637c-6.159-3.554-16.913-3.108-24.023,1l-44.414,25.641h-39.052v15.984h.032c-.175,2.407,1.166,4.729,4.125,6.436l81.035,46.787c6.157,3.554,16.913,3.108,24.023-1l77.583-44.793C-1515.334,2414.287-1513.355,2411.222-1513.583,2408.366Z" transform="translate(1706.232 -2337.617)" opacity="0.5" fill="url(#d)"/><path d="M-1649.892,2366.6a21.777,21.777,0,0,0-11.155-2.381V2464.82a27.717,27.717,0,0,0,12.881-3.377l77.583-44.792c4.1-2.369,6.078-5.434,5.85-8.29v-15.128h-39.024Z" transform="translate(1757.381 -2337.613)" fill="url(#a)"/><path d="M-1621.04,2460.575l-81.035-46.786c-6.157-3.554-5.385-9.765,1.725-13.869l77.583-44.793c7.11-4.1,17.864-4.55,24.023-1l81.034,46.786c6.157,3.554,5.385,9.765-1.725,13.869l-77.583,44.79C-1604.127,2463.684-1614.883,2464.129-1621.04,2460.575Z" transform="translate(1706.232 -2351.732)" fill="url(#a)"/><path d="M-1621.04,2460.575l-81.035-46.786c-6.157-3.554-5.385-9.765,1.725-13.869l77.583-44.793c7.11-4.1,17.864-4.55,24.023-1l81.034,46.786c6.157,3.554,5.385,9.765-1.725,13.869l-77.583,44.79C-1604.127,2463.684-1614.883,2464.129-1621.04,2460.575Z" transform="translate(1706.232 -2351.732)" opacity="0.5" fill="url(#a)"/><path d="M-1628.812,2444.5l-65.29-37.694c-4.961-2.865-4.339-7.869,1.39-11.175l62.508-36.089c5.729-3.309,14.4-3.667,19.356-.8l65.29,37.7c4.961,2.865,4.339,7.867-1.39,11.177l-62.508,36.088C-1615.185,2447-1623.852,2447.361-1628.812,2444.5Z" transform="translate(1716.171 -2345.994)" fill="url(#a)"/><path d="M-1692.714,2400.515l62.508-36.088c5.729-3.307,14.4-3.667,19.356-.8l65.29,37.7a7.236,7.236,0,0,1,2.656,2.456c1.441-2.648.61-5.46-2.656-7.347l-65.29-37.7c-4.961-2.863-13.628-2.505-19.356.8l-62.508,36.089c-4.315,2.49-5.729,5.942-4.049,8.72A10.369,10.369,0,0,1-1692.714,2400.515Z" transform="translate(1716.172 -2345.994)" fill="url(#a)"/><path d="M-1618.32,2460.57l-81.035-46.786c-6.157-3.554-7.628-8.775,1.725-13.869l77.583-44.793a27.5,27.5,0,0,1,12.155-3.355,28.186,28.186,0,0,0-14.875,3.355l-77.583,44.793c-7.11,4.1-7.882,10.315-1.725,13.869l81.035,46.786c3.13,1.806,7.447,2.573,11.869,2.358A20.408,20.408,0,0,1-1618.32,2460.57Z" transform="translate(1706.232 -2351.727)" opacity="0.5" fill="url(#a)"/><path d="M-1519.433,2388.878l-77.583,44.793c-7.11,4.1-17.866,4.55-24.023,1l-81.035-46.787c-2.959-1.708-4.3-4.029-4.125-6.437h-.032v3.313h.032c-.175,2.406,1.166,4.729,4.125,6.437l81.035,46.785c6.157,3.556,16.913,3.11,24.023-1l77.583-44.791c4.1-2.369,6.078-5.436,5.85-8.291v-3.311C-1513.355,2383.443-1515.334,2386.509-1519.433,2388.878Z" transform="translate(1706.232 -2319.067)" opacity="0.5" fill="url(#k)"/><g transform="translate(168.862 59.257)"><path d="M-1623.162,2382.612a.975.975,0,0,1,0,1.848,3.532,3.532,0,0,1-3.2,0,.975.975,0,0,1,0-1.848A3.529,3.529,0,0,1-1623.162,2382.612Z" transform="translate(1627.028 -2376.469)" fill="url(#l)"/><path d="M-1620.822,2381.259a.976.976,0,0,1,0,1.849,3.528,3.528,0,0,1-3.2,0,.976.976,0,0,1,0-1.849A3.549,3.549,0,0,1-1620.822,2381.259Z" transform="translate(1629.677 -2377.997)" fill="url(#bc)"/><path d="M-1618.483,2379.909a.977.977,0,0,1,0,1.851,3.547,3.547,0,0,1-3.2,0,.977.977,0,0,1,0-1.851A3.545,3.545,0,0,1-1618.483,2379.909Z" transform="translate(1632.324 -2379.527)" fill="url(#bd)"/></g><path d="M-1513.588,2384.995c.143,2.808-1.825,5.8-5.846,8.123l-77.583,44.793c-7.11,4.1-17.866,4.55-24.023,1l-81.035-46.787c-2.959-1.707-4.3-4.029-4.125-6.436h-.032v41.67h.071c-.043,2.294,1.256,4.494,4.087,6.129l81.035,46.787c6.157,3.554,16.913,3.108,24.023-1l77.583-44.793c3.935-2.273,5.852-5.185,5.8-7.94h.077v-41.546Z" transform="translate(1706.232 -2314.079)" opacity="0.5" fill="url(#a)"/><path d="M-1570.582,2393.118l-77.583,44.793a27.669,27.669,0,0,1-12.881,3.363v41.362a27.689,27.689,0,0,0,12.881-3.362l77.583-44.793c3.935-2.273,5.852-5.185,5.8-7.94h.077v-41.546h-.034C-1564.594,2387.8-1566.562,2390.8-1570.582,2393.118Z" transform="translate(1757.381 -2314.079)" opacity="0.7" fill="url(#a)" style="mix-blend-mode:lighten;isolation:isolate"/><path d="M-1570.582,2393.118l-77.583,44.793a27.669,27.669,0,0,1-12.881,3.363v41.362a27.689,27.689,0,0,0,12.881-3.362l77.583-44.793c3.935-2.273,5.852-5.185,5.8-7.94h.077v-41.546h-.034C-1564.594,2387.8-1566.562,2390.8-1570.582,2393.118Z" transform="translate(1757.381 -2314.079)" opacity="0.2" fill="url(#a)"/><g transform="translate(108.081 90.385)" opacity="0.75"><path d="M-1651.275,2415.3a4.706,4.706,0,0,1-2.132,3.69c-1.177.68-2.13.13-2.13-1.23a4.7,4.7,0,0,1,2.13-3.688C-1652.23,2413.388-1651.275,2413.938-1651.275,2415.3Z" transform="translate(1655.537 -2371.884)" fill="#fff"/><path d="M-1647.987,2413.4a4.713,4.713,0,0,1-2.132,3.69c-1.177.68-2.13.128-2.13-1.23a4.711,4.711,0,0,1,2.13-3.691C-1648.942,2411.488-1647.987,2412.041-1647.987,2413.4Z" transform="translate(1659.259 -2374.034)" fill="#fff"/><path d="M-1644.7,2411.5a4.7,4.7,0,0,1-2.13,3.688c-1.177.68-2.132.13-2.132-1.23a4.707,4.707,0,0,1,2.132-3.688C-1645.652,2409.591-1644.7,2410.14-1644.7,2411.5Z" transform="translate(1662.98 -2376.183)" fill="#fff"/><path d="M-1591.768,2399.047l-53.679,30.992v-4.92l53.679-30.992Z" transform="translate(1666.959 -2394.127)" fill="#fff"/><g transform="translate(0 9.409)"><path d="M-1651.275,2419.709a4.708,4.708,0,0,1-2.132,3.69c-1.177.68-2.13.13-2.13-1.231a4.711,4.711,0,0,1,2.13-3.69C-1652.23,2417.8-1651.275,2418.35-1651.275,2419.709Z" transform="translate(1655.537 -2376.298)" fill="#fff"/><path d="M-1647.987,2417.811a4.713,4.713,0,0,1-2.132,3.691c-1.177.68-2.13.128-2.13-1.23a4.71,4.71,0,0,1,2.13-3.69C-1648.942,2415.9-1647.987,2416.453-1647.987,2417.811Z" transform="translate(1659.259 -2378.448)" fill="#fff"/><path d="M-1644.7,2415.912a4.7,4.7,0,0,1-2.13,3.69c-1.177.68-2.132.13-2.132-1.23a4.712,4.712,0,0,1,2.132-3.69C-1645.652,2414-1644.7,2414.554-1644.7,2415.912Z" transform="translate(1662.98 -2380.597)" fill="#fff"/><path d="M-1591.768,2403.461l-53.679,30.991v-4.921l53.679-30.991Z" transform="translate(1666.959 -2398.54)" fill="#fff"/></g><g transform="translate(0 18.817)"><path d="M-1651.275,2424.122a4.706,4.706,0,0,1-2.132,3.69c-1.177.68-2.13.13-2.13-1.23a4.709,4.709,0,0,1,2.13-3.69C-1652.23,2422.214-1651.275,2422.764-1651.275,2424.122Z" transform="translate(1655.537 -2380.711)" fill="#fff"/><path d="M-1647.987,2422.225a4.712,4.712,0,0,1-2.132,3.69c-1.177.68-2.13.128-2.13-1.23a4.71,4.71,0,0,1,2.13-3.69C-1648.942,2420.314-1647.987,2420.866-1647.987,2422.225Z" transform="translate(1659.259 -2382.86)" fill="#fff"/><path d="M-1644.7,2420.325a4.7,4.7,0,0,1-2.13,3.69c-1.177.68-2.132.13-2.132-1.23a4.714,4.714,0,0,1,2.132-3.691C-1645.652,2418.417-1644.7,2418.967-1644.7,2420.325Z" transform="translate(1662.98 -2385.009)" fill="#fff"/><path d="M-1591.768,2407.873l-53.679,30.992v-4.92l53.679-30.992Z" transform="translate(1666.959 -2402.953)" fill="#fff"/></g></g><g transform="translate(16.071 98.933)"><path d="M-1679.425,2413.449l17.979,10.38v4.018l-17.979-10.38Z" transform="translate(1720.506 -2380.802)" fill="#fff"/><path d="M-1698.694,2402.324l21.749,12.557v4.018l-21.749-12.556Z" transform="translate(1698.694 -2393.396)" fill="#fff" opacity="0.2"/><path d="M-1679.425,2409.261l17.979,10.381v4.018l-17.979-10.38Z" transform="translate(1720.506 -2385.543)" fill="#fff" opacity="0.2"/><path d="M-1685.908,2405.518l8.313,4.8v4.018l-8.313-4.8Z" transform="translate(1713.167 -2389.781)" fill="#fff"/><path d="M-1685.908,2409.706l8.313,4.8v4.018l-8.313-4.8Z" transform="translate(1713.167 -2385.04)" fill="#fff" opacity="0.2"/><path d="M-1698.694,2398.136l21.749,12.556v4.018l-21.749-12.556Z" transform="translate(1698.694 -2398.136)" fill="#fff"/></g></g><path d="M-1513.583,2381.468V2366.34h-39.024l-46.136-26.637c-6.159-3.554-16.913-3.108-24.023,1l-44.414,25.642h-39.052v15.983h.032c-.175,2.407,1.166,4.729,4.125,6.437l81.035,46.787c6.157,3.554,16.913,3.108,24.023-1l77.583-44.793C-1515.334,2387.389-1513.355,2384.323-1513.583,2381.468Z" transform="translate(1706.232 -2310.719)" fill="url(#a)"/><path d="M-1513.583,2381.468V2366.34h-39.024l-46.136-26.637c-6.159-3.554-16.913-3.108-24.023,1l-44.414,25.642h-39.052v15.983h.032c-.175,2.407,1.166,4.729,4.125,6.437l81.035,46.787c6.157,3.554,16.913,3.108,24.023-1l77.583-44.793C-1515.334,2387.389-1513.355,2384.323-1513.583,2381.468Z" transform="translate(1706.232 -2310.719)" opacity="0.5" fill="url(#d)"/><path d="M-1649.892,2339.7a21.767,21.767,0,0,0-11.155-2.381v100.606a27.723,27.723,0,0,0,12.881-3.377l77.583-44.793c4.1-2.369,6.078-5.435,5.85-8.289v-15.128h-39.024Z" transform="translate(1757.381 -2310.715)" fill="url(#a)"/><path d="M-1621.04,2433.677l-81.035-46.787c-6.157-3.554-5.385-9.764,1.725-13.868l77.583-44.793c7.11-4.1,17.864-4.55,24.023-1l81.034,46.786c6.157,3.554,5.385,9.765-1.725,13.868l-77.583,44.793C-1604.127,2436.786-1614.883,2437.232-1621.04,2433.677Z" transform="translate(1706.232 -2324.834)" fill="url(#a)"/><path d="M-1621.04,2433.677l-81.035-46.787c-6.157-3.554-5.385-9.764,1.725-13.868l77.583-44.793c7.11-4.1,17.864-4.55,24.023-1l81.034,46.786c6.157,3.554,5.385,9.765-1.725,13.868l-77.583,44.793C-1604.127,2436.786-1614.883,2437.232-1621.04,2433.677Z" transform="translate(1706.232 -2324.834)" opacity="0.5" fill="url(#a)"/><path d="M-1628.812,2417.6l-65.29-37.694c-4.961-2.865-4.339-7.869,1.39-11.176l62.508-36.088c5.729-3.309,14.4-3.667,19.356-.8l65.29,37.7c4.961,2.865,4.339,7.867-1.39,11.176l-62.508,36.088C-1615.185,2420.1-1623.852,2420.463-1628.812,2417.6Z" transform="translate(1716.171 -2319.096)" fill="url(#a)"/><path d="M-1692.714,2373.618l62.508-36.09c5.729-3.307,14.4-3.667,19.356-.8l65.29,37.7a7.26,7.26,0,0,1,2.656,2.456c1.441-2.648.61-5.46-2.656-7.347l-65.29-37.7c-4.961-2.864-13.628-2.505-19.356.8l-62.508,36.088c-4.315,2.49-5.729,5.942-4.049,8.72A10.351,10.351,0,0,1-1692.714,2373.618Z" transform="translate(1716.172 -2319.096)" fill="url(#a)"/><path d="M-1618.32,2433.672l-81.035-46.787c-6.157-3.554-7.628-8.775,1.725-13.868l77.583-44.793a27.488,27.488,0,0,1,12.155-3.356,28.2,28.2,0,0,0-14.875,3.356l-77.583,44.793c-7.11,4.1-7.882,10.314-1.725,13.868l81.035,46.787c3.13,1.805,7.447,2.573,11.869,2.358A20.376,20.376,0,0,1-1618.32,2433.672Z" transform="translate(1706.232 -2324.829)" opacity="0.5" fill="url(#a)"/><path d="M-1519.433,2361.98l-77.583,44.793c-7.11,4.1-17.866,4.549-24.023.995l-81.035-46.786c-2.959-1.708-4.3-4.03-4.125-6.437h-.032v3.313h.032c-.175,2.405,1.166,4.729,4.125,6.437l81.035,46.784c6.157,3.556,16.913,3.111,24.023-1l77.583-44.791c4.1-2.369,6.078-5.436,5.85-8.292v-3.311C-1513.355,2356.546-1515.334,2359.611-1519.433,2361.98Z" transform="translate(1706.232 -2292.169)" opacity="0.5" fill="url(#k)"/><g transform="translate(168.862 59.258)"><path d="M-1623.162,2355.713a.975.975,0,0,1,0,1.848,3.529,3.529,0,0,1-3.2,0,.975.975,0,0,1,0-1.848A3.534,3.534,0,0,1-1623.162,2355.713Z" transform="translate(1627.028 -2349.571)" fill="#f4f4f4"/><path d="M-1620.822,2354.361a.977.977,0,0,1,0,1.851,3.545,3.545,0,0,1-3.2,0,.977.977,0,0,1,0-1.851A3.546,3.546,0,0,1-1620.822,2354.361Z" transform="translate(1629.677 -2351.1)" fill="#f4f4f4"/><path d="M-1618.483,2353.013a.975.975,0,0,1,0,1.848,3.547,3.547,0,0,1-3.2,0,.975.975,0,0,1,0-1.848A3.532,3.532,0,0,1-1618.483,2353.013Z" transform="translate(1632.324 -2352.629)" fill="#f4f4f4"/></g><path d="M-1513.588,2358.1c.143,2.808-1.825,5.8-5.846,8.123l-77.583,44.793c-7.11,4.1-17.866,4.55-24.023,1l-81.035-46.787c-2.959-1.708-4.3-4.03-4.125-6.437h-.032v41.67h.071c-.043,2.294,1.256,4.494,4.087,6.129l81.035,46.786c6.157,3.554,16.913,3.108,24.023-1l77.583-44.793c3.935-2.273,5.852-5.186,5.8-7.94h.077V2358.1Z" transform="translate(1706.232 -2287.181)" opacity="0.5" fill="url(#a)"/><path d="M-1570.582,2366.219l-77.583,44.793a27.668,27.668,0,0,1-12.881,3.362v41.363a27.7,27.7,0,0,0,12.881-3.362l77.583-44.793c3.935-2.273,5.852-5.186,5.8-7.94h.077V2358.1h-.034C-1564.594,2360.9-1566.562,2363.9-1570.582,2366.219Z" transform="translate(1757.381 -2287.181)" opacity="0.7" fill="url(#a)" style="mix-blend-mode:lighten;isolation:isolate"/><path d="M-1570.582,2366.219l-77.583,44.793a27.668,27.668,0,0,1-12.881,3.362v41.363a27.7,27.7,0,0,0,12.881-3.362l77.583-44.793c3.935-2.273,5.852-5.186,5.8-7.94h.077V2358.1h-.034C-1564.594,2360.9-1566.562,2363.9-1570.582,2366.219Z" transform="translate(1757.381 -2287.181)" opacity="0.2" fill="url(#a)"/><g transform="translate(107.198 90.385)" opacity="0.77"><g transform="translate(0)"><ellipse cx="3.013" cy="1.74" rx="3.013" ry="1.74" transform="matrix(0.5, -0.866, 0.866, 0.5, 0, 46.382)" fill="#f4f4f4"/><path d="M-1647.987,2386.5a4.712,4.712,0,0,1-2.132,3.69c-1.177.68-2.13.127-2.13-1.23a4.711,4.711,0,0,1,2.13-3.69C-1648.942,2384.59-1647.987,2385.142-1647.987,2386.5Z" transform="translate(1660.142 -2347.136)" fill="#f4f4f4"/><path d="M-1644.7,2384.6a4.711,4.711,0,0,1-2.13,3.69c-1.177.678-2.132.128-2.132-1.23a4.706,4.706,0,0,1,2.132-3.69C-1645.652,2382.692-1644.7,2383.242-1644.7,2384.6Z" transform="translate(1663.864 -2349.285)" fill="#f4f4f4"/><path d="M-1591.768,2372.15l-53.679,30.991v-4.92l53.679-30.992Z" transform="translate(1667.842 -2367.229)" fill="#f4f4f4"/></g><g transform="translate(0.883 9.409)"><path d="M-1651.275,2392.812a4.715,4.715,0,0,1-2.132,3.691c-1.177.677-2.13.127-2.13-1.23a4.7,4.7,0,0,1,2.13-3.69C-1652.23,2390.9-1651.275,2391.452-1651.275,2392.812Z" transform="translate(1655.537 -2349.4)" fill="#f4f4f4"/><path d="M-1647.987,2390.913a4.712,4.712,0,0,1-2.132,3.69c-1.177.68-2.13.128-2.13-1.23a4.709,4.709,0,0,1,2.13-3.69C-1648.942,2389-1647.987,2389.556-1647.987,2390.913Z" transform="translate(1659.259 -2351.55)" fill="#f4f4f4"/><path d="M-1644.7,2389.016a4.711,4.711,0,0,1-2.13,3.69c-1.177.678-2.132.128-2.132-1.23a4.707,4.707,0,0,1,2.132-3.69C-1645.652,2387.105-1644.7,2387.656-1644.7,2389.016Z" transform="translate(1662.98 -2353.698)" fill="#f4f4f4"/><path d="M-1591.768,2376.562l-53.679,30.991v-4.92l53.679-30.991Z" transform="translate(1666.959 -2371.642)" fill="#f4f4f4"/></g><g transform="translate(0 18.817)"><ellipse cx="3.013" cy="1.74" rx="3.013" ry="1.74" transform="matrix(0.5, -0.866, 0.866, 0.5, 0, 46.382)" fill="#f4f4f4"/><path d="M-1647.987,2395.327a4.712,4.712,0,0,1-2.132,3.69c-1.177.68-2.13.128-2.13-1.23a4.711,4.711,0,0,1,2.13-3.691C-1648.942,2393.416-1647.987,2393.969-1647.987,2395.327Z" transform="translate(1660.142 -2355.962)" fill="#f4f4f4"/><path d="M-1644.7,2393.429a4.7,4.7,0,0,1-2.13,3.688c-1.177.68-2.132.13-2.132-1.228a4.707,4.707,0,0,1,2.132-3.69C-1645.652,2391.519-1644.7,2392.068-1644.7,2393.429Z" transform="translate(1663.864 -2358.111)" fill="#f4f4f4"/><path d="M-1591.768,2380.975l-53.679,30.992v-4.92l53.679-30.992Z" transform="translate(1667.842 -2376.055)" fill="#f4f4f4"/></g></g><g transform="translate(16.071 98.933)"><path d="M-1679.425,2386.552l17.979,10.38v4.018l-17.979-10.38Z" transform="translate(1720.506 -2353.905)" fill="#fff"/><path d="M-1698.694,2375.426l21.749,12.557V2392l-21.749-12.556Z" transform="translate(1698.694 -2366.498)" fill="#fff" opacity="0.2"/><path d="M-1679.425,2382.363l17.979,10.381v4.018l-17.979-10.38Z" transform="translate(1720.506 -2358.645)" fill="#fff" opacity="0.2"/><path d="M-1685.908,2378.62l8.313,4.8v4.018l-8.313-4.8Z" transform="translate(1713.167 -2362.883)" fill="#fff"/><path d="M-1685.908,2382.808l8.313,4.8v4.018l-8.313-4.8Z" transform="translate(1713.167 -2358.141)" fill="#fff" opacity="0.2"/><path d="M-1698.694,2371.238l21.749,12.556v4.019l-21.749-12.557Z" transform="translate(1698.694 -2371.238)" fill="#fff"/></g></g><g transform="translate(-1499.201 2540.549)"><path d="M-1653.787,2598.314a10.988,10.988,0,0,0,5.123,8.5l143.487,82.843a11.32,11.32,0,0,0,10.242,0l196.33-113.351a10.982,10.982,0,0,0,5.121-8.5,10.984,10.984,0,0,0-5.119-8.5l-143.489-82.843a11.32,11.32,0,0,0-10.242,0l-196.332,113.351A10.986,10.986,0,0,0-1653.787,2598.314Z" transform="translate(1663.394 -2286.573)" fill="url(#ci)"/><path d="M-1500.053,2618.79v11.082a10.434,10.434,0,0,1-5.121-1.219l-143.493-82.845a10.988,10.988,0,0,1-5.119-8.5,11.037,11.037,0,0,1,4.6-8.172c-2.294,1.644-2.115,4.057.52,5.583l143.493,82.845A10.438,10.438,0,0,0-1500.053,2618.79Z" transform="translate(1663.394 -2225.561)" fill="url(#cj)"/><path d="M-1653.49,2690.163a10.98,10.98,0,0,1-4.8-8.685V2510.245a11.311,11.311,0,0,1,5.121-8.869l196.33-113.354a10.981,10.981,0,0,1,9.924-.181,10.974,10.974,0,0,1,4.806,8.685V2567.76a11.314,11.314,0,0,1-5.121,8.869l-196.332,113.351A10.976,10.976,0,0,1-1653.49,2690.163Z" transform="translate(1658.293 -2386.743)" fill="url(#ck)"/><path d="M-1644.169,2627.393a11.014,11.014,0,0,1-9.321-.13,10.971,10.971,0,0,1-4.8-8.681V2447.344a10.32,10.32,0,0,1,1.5-5.038l9.6,5.535v.01a10.5,10.5,0,0,0-1.5,5.04v171.237C-1648.687,2627.156-1646.713,2628.516-1644.169,2627.393Z" transform="translate(1658.294 -2323.846)" fill="url(#cl)"/><path d="M-1653.787,2512.538v171.234c0,3.264,2.294,4.587,5.121,2.954l196.332-113.351a11.315,11.315,0,0,0,5.121-8.869V2393.273c0-3.266-2.292-4.59-5.121-2.957l-196.332,113.351A11.323,11.323,0,0,0-1653.787,2512.538Z" transform="translate(1663.394 -2383.489)" fill="url(#cm)"/><path d="M-1650.259,2595.723l143.489,82.843a11.315,11.315,0,0,0,10.242,0l196.333-113.351c2.827-1.633,2.827-4.281,0-5.914l-143.489-82.843a11.32,11.32,0,0,0-10.242,0l-196.333,113.351C-1653.086,2591.442-1653.086,2594.091-1650.259,2595.723Z" transform="translate(1664.987 -2286.573)" fill="url(#cn)"/><path d="M-1648.462,2505.8l189.288-109.258c1.7-.98,3.074-.185,3.074,1.774v148.229a6.791,6.791,0,0,1-3.074,5.322l-189.288,109.256c-1.7.979-3.072.186-3.072-1.774V2511.125A6.788,6.788,0,0,1-1648.462,2505.8Z" transform="translate(1665.944 -2376.122)" fill="#fff"/><path d="M-1648.462,2505.8l189.288-109.258c1.7-.98,3.074-.185,3.074,1.774v148.229a6.791,6.791,0,0,1-3.074,5.322l-189.288,109.256c-1.7.979-3.072.186-3.072-1.774V2511.125A6.788,6.788,0,0,1-1648.462,2505.8Z" transform="translate(1665.944 -2376.122)" fill="url(#co)"/><path d="M-1643.01,2585.858l182.24-105.213a5.658,5.658,0,0,1,5.121,0l9.321,5.381c1.413.817,1.413,2.14,0,2.957l-182.264,105.2a5.663,5.663,0,0,1-5.123,0l-9.293-5.365C-1644.424,2588-1644.424,2586.674-1643.01,2585.858Z" transform="translate(1674.393 -2281.141)" fill="url(#cp)"/><path d="M-1631.743,2592.364l182.236-105.216a5.658,5.658,0,0,1,5.121,0l57.331,33.1c1.416.816,1.416,2.14,0,2.957l-182.027,105.071a5.681,5.681,0,0,1-5.125.006l-57.532-32.972C-1633.154,2594.5-1633.156,2593.18-1631.743,2592.364Z" transform="translate(1687.149 -2273.779)" fill="url(#cq)"/><path d="M-1471.063,2532.113l5.707-3.294c.241-.138.228-.375-.032-.524l-6.6-3.81a1.008,1.008,0,0,0-.91-.019l-5.705,3.293c-.243.141-.228.375.032.527l6.6,3.81A1,1,0,0,0-1471.063,2532.113Zm-11.259-13.088-5.705,3.294c-.243.141-.228.375.032.527l6.6,3.808a1,1,0,0,0,.908.02l5.707-3.294c.243-.141.228-.376-.032-.527l-6.6-3.807A1,1,0,0,0-1482.322,2519.024Zm-18.433,10.643-9.658,5.575c-.241.139-.226.375.034.525l6.6,3.81a1.016,1.016,0,0,0,.911.018l9.656-5.575c.243-.141.228-.375-.032-.526l-6.6-3.81A1.006,1.006,0,0,0-1500.755,2529.667Zm10.095-5.829-5.707,3.293c-.241.141-.228.376.032.527l6.6,3.807a1,1,0,0,0,.91.02l5.705-3.294c.243-.14.228-.375-.032-.524l-6.6-3.81A1,1,0,0,0-1490.661,2523.839Zm-22.386,12.924-5.705,3.294c-.243.141-.228.375.032.527l6.6,3.807a1,1,0,0,0,.911.02l5.705-3.294c.243-.14.228-.375-.032-.524l-6.6-3.809A1,1,0,0,0-1513.046,2536.763Zm-8.338,4.814-5.707,3.293c-.241.141-.226.375.034.527l6.6,3.808a1,1,0,0,0,.911.019l5.705-3.293c.243-.141.228-.375-.032-.525l-6.6-3.81A1.006,1.006,0,0,0-1521.384,2541.577Zm25.953,15.49,5.705-3.293c.241-.141.228-.375-.032-.527l-6.6-3.808a1,1,0,0,0-.911-.019l-5.705,3.294c-.243.141-.228.375.032.527l6.6,3.808A1,1,0,0,0-1495.432,2557.067Zm-8.34,4.814,5.705-3.294c.243-.141.228-.375-.032-.524l-6.6-3.81a1.01,1.01,0,0,0-.91-.019l-5.707,3.294c-.243.14-.228.375.032.527l6.6,3.807A1,1,0,0,0-1503.772,2561.882Zm-8.34,4.816,5.707-3.3c.243-.138.228-.372-.032-.524l-6.6-3.81a1.016,1.016,0,0,0-.911-.019l-5.705,3.3c-.243.139-.228.375.032.524l6.6,3.81A1.011,1.011,0,0,0-1512.112,2566.7Zm-8.338,4.814,5.705-3.295c.243-.14.228-.375-.032-.526l-6.6-3.808a1,1,0,0,0-.911-.02l-5.705,3.295c-.243.14-.228.375.032.524l6.6,3.81A1.012,1.012,0,0,0-1520.451,2571.512Zm41.049-34.583,5.705-3.3c.243-.138.228-.375-.032-.524l-6.6-3.81a1,1,0,0,0-.908-.017l-5.707,3.293c-.241.139-.228.376.032.525l6.6,3.81A1.009,1.009,0,0,0-1479.4,2536.929Zm-7.692,15.324,12.728-7.349c.243-.14.228-.375-.032-.526l-16.024-9.251a1.01,1.01,0,0,0-.908-.02l-6.584,3.8c-.243.14-.228.375.032.526l8.483,4.9c.26.149.273.386.032.524l-5.268,3.042c-.241.139-.228.375.032.524l6.6,3.81A1.015,1.015,0,0,0-1487.094,2552.254Zm-42.631-5.863-5.705,3.3c-.243.138-.228.375.032.524l6.6,3.81a1.016,1.016,0,0,0,.91.019l5.705-3.294c.243-.141.228-.375-.032-.527l-6.6-3.81A1.018,1.018,0,0,0-1529.725,2546.39Zm-8.338,4.817-5.707,3.294c-.241.14-.228.375.034.526l6.6,3.808a1,1,0,0,0,.91.019l5.705-3.294c.243-.141.228-.375-.032-.527l-6.6-3.808A1,1,0,0,0-1538.063,2551.207Zm-41.674,53.99a1.009,1.009,0,0,0,.91.017l5.707-3.294c.241-.141.226-.375-.034-.527l-6.6-3.807a1.01,1.01,0,0,0-.91-.02l-5.705,3.294c-.243.14-.228.375.03.527Zm-25.042-15.471-5.705,3.294c-.243.138-.228.375.032.524l6.6,3.81a1.017,1.017,0,0,0,.911.019l5.705-3.3c.243-.139.228-.375-.032-.524l-6.6-3.81A1.01,1.01,0,0,0-1604.779,2589.726Zm13.423,11.3a1,1,0,0,0,.911.019l5.7-3.293c.243-.14.228-.375-.032-.524l-6.6-3.81a1,1,0,0,0-.91-.02l-5.705,3.294c-.243.141-.228.376.032.527Zm26.345,7.1,5.705-3.294c.243-.141.228-.375-.032-.527l-6.6-3.81a1.008,1.008,0,0,0-.91-.017l-5.705,3.294c-.241.14-.228.375.032.527l6.6,3.807A1,1,0,0,0-1565.011,2608.123Zm-9.249,4.8a1,1,0,0,0,.908.017l5.707-3.293c.241-.141.226-.375-.034-.525l-6.6-3.81a1.009,1.009,0,0,0-.911-.018l-5.707,3.3c-.241.138-.226.373.034.524Zm-22.179-28.01-5.705,3.293c-.243.141-.228.375.032.527l6.6,3.81a1.006,1.006,0,0,0,.91.017l5.707-3.293c.241-.141.228-.375-.034-.525l-6.6-3.81A1.008,1.008,0,0,0-1596.439,2584.91Zm41.7-24.073-5.707,3.294c-.241.139-.228.375.032.524l6.6,3.81a1.013,1.013,0,0,0,.91.02l5.705-3.3c.243-.139.228-.374-.032-.525l-6.6-3.81A1,1,0,0,0-1554.742,2560.837ZM-1588.1,2580.1l-5.707,3.294c-.243.141-.228.375.032.524l6.6,3.81a1,1,0,0,0,.91.019l5.705-3.294c.243-.14.228-.375-.032-.527l-6.6-3.81A1,1,0,0,0-1588.1,2580.1Zm41.7-24.074-5.705,3.294c-.243.141-.228.375.032.527l6.6,3.808a1,1,0,0,0,.91.019l5.705-3.294c.243-.14.228-.375-.032-.524l-6.6-3.81A1.009,1.009,0,0,0-1546.4,2556.021Zm-16.678,9.631-5.705,3.293c-.243.141-.228.376.032.527l6.6,3.807a1,1,0,0,0,.91.019l5.705-3.293c.241-.141.228-.375-.032-.527l-6.6-3.807A1,1,0,0,0-1563.082,2565.651Zm-8.338,4.814-5.707,3.294c-.241.14-.228.375.032.526l6.6,3.81a1.01,1.01,0,0,0,.91.017l5.705-3.294c.243-.139.228-.375-.032-.524l-6.6-3.81A1.009,1.009,0,0,0-1571.42,2570.465Zm-8.34,4.816-5.705,3.294c-.243.138-.228.375.032.524l6.6,3.81a1.011,1.011,0,0,0,.908.019l5.707-3.3c.243-.139.228-.375-.032-.524l-6.6-3.81A1.006,1.006,0,0,0-1579.76,2575.281Zm42.631,5.861,5.705-3.3c.243-.138.228-.375-.032-.524l-6.6-3.81a1.008,1.008,0,0,0-.91-.017l-5.705,3.292c-.243.14-.228.377.032.527l6.6,3.81A1.017,1.017,0,0,0-1537.129,2581.142Zm73.242-72.761-5.707,3.294c-.241.141-.226.375.032.524l6.6,3.809a1.007,1.007,0,0,0,.91.02l5.705-3.294c.243-.14.228-.375-.032-.527l-6.6-3.81A1.01,1.01,0,0,0-1463.887,2508.382Zm-10.095,5.827-5.707,3.3c-.241.139-.228.374.034.524l6.6,3.81a1.015,1.015,0,0,0,.91.019l5.705-3.294c.243-.14.228-.377-.032-.526l-6.6-3.81A1.015,1.015,0,0,0-1473.982,2514.208Zm18.433-10.64-5.705,3.293c-.243.139-.228.375.032.525l6.6,3.81a1,1,0,0,0,.908.016l5.707-3.293c.243-.139.228-.375-.032-.524l-6.6-3.81A1.006,1.006,0,0,0-1455.549,2503.568Zm-43.164,44.509,5.705-3.294c.243-.139.228-.375-.032-.524l-6.6-3.81a1.012,1.012,0,0,0-.91-.02l-5.705,3.3c-.243.139-.228.374.032.525l6.6,3.81A1.01,1.01,0,0,0-1498.713,2548.077Zm52.415-49.307a1.007,1.007,0,0,0-.912-.019l-5.7,3.294c-.243.14-.23.375.032.526l6.6,3.808a1,1,0,0,0,.91.02l5.705-3.295c.243-.14.228-.375-.032-.524Zm-82.493,77.555,5.707-3.293c.241-.141.226-.375-.034-.525l-6.6-3.81a1,1,0,0,0-.91-.019l-5.705,3.293c-.243.141-.228.375.032.527l6.6,3.808A1,1,0,0,0-1528.791,2576.326Zm102.267-59.043,5.705-3.294c.243-.141.228-.375-.032-.527l-6.6-3.808a1,1,0,0,0-.91-.019l-5.705,3.294c-.241.14-.228.375.032.526l6.6,3.808A1,1,0,0,0-1426.524,2517.283Zm-17.764-.627,5.705-3.294c.243-.14.228-.375-.032-.527l-6.6-3.808a1,1,0,0,0-.911-.019l-5.705,3.293c-.243.141-.228.375.032.525l6.6,3.81A1,1,0,0,0-1444.287,2516.656Zm7.413-12.444a1.01,1.01,0,0,0-.908-.019l-5.707,3.3c-.241.138-.228.375.034.524l6.6,3.81a1.013,1.013,0,0,0,.91.019l5.705-3.294c.243-.14.228-.375-.032-.526Zm1.757-1.012,16.024,9.25a1.006,1.006,0,0,0,.908.02l5.707-3.294c.243-.141.228-.375-.032-.527l-16.024-9.251a1.013,1.013,0,0,0-.91-.019l-5.705,3.294C-1435.393,2502.813-1435.378,2503.048-1435.118,2503.2Zm-19.344,10.623-5.707,3.294c-.241.141-.228.375.032.527l6.6,3.807a1,1,0,0,0,.911.019l5.705-3.294c.243-.14.228-.375-.032-.524l-6.6-3.81A1.018,1.018,0,0,0-1454.461,2513.822Zm-62.766,36.238-5.705,3.294c-.243.141-.228.375.032.525l6.6,3.81a1,1,0,0,0,.91.019l5.705-3.293c.243-.141.228-.375-.032-.527l-6.6-3.808A1,1,0,0,0-1517.227,2550.06Zm81.455-27.98a1.01,1.01,0,0,0,.91.017l5.705-3.294c.241-.14.228-.375-.032-.524l-6.6-3.81a1.008,1.008,0,0,0-.911-.02l-5.705,3.3c-.243.139-.228.375.032.524Zm-73.114,23.166-5.707,3.294c-.241.141-.226.375.034.524l6.6,3.81a1,1,0,0,0,.911.02l5.705-3.294c.243-.14.228-.375-.032-.527l-6.6-3.807A1,1,0,0,0-1508.887,2545.246Zm-62.51,55.136a1.008,1.008,0,0,0,.91.018l5.705-3.293c.243-.141.228-.375-.032-.527l-6.6-3.81a1.006,1.006,0,0,0-.91-.017l-5.705,3.294c-.243.141-.228.375.032.525Zm-12.545-11.8-5.7,3.294c-.243.139-.228.375.032.524l6.6,3.81a1.014,1.014,0,0,0,.91.019l5.707-3.294c.243-.14.228-.375-.034-.527l-6.6-3.81A1.01,1.01,0,0,0-1583.942,2588.578Zm21.794,7.006,5.705-3.294c.243-.138.23-.375-.032-.524l-6.6-3.81a1.015,1.015,0,0,0-.91-.019l-5.707,3.3c-.241.138-.226.375.034.524l6.6,3.81A1.008,1.008,0,0,0-1562.148,2595.584Zm8.34-4.814,5.705-3.294c.243-.14.228-.375-.032-.524l-6.6-3.81a1,1,0,0,0-.911-.02l-5.705,3.294c-.243.141-.228.376.032.527l6.6,3.808A1,1,0,0,0-1553.808,2590.771Zm8.338-4.814,5.707-3.293c.241-.141.226-.376-.032-.527l-6.6-3.81a1.01,1.01,0,0,0-.911-.017l-5.705,3.294c-.243.139-.228.375.032.524l6.6,3.81A1,1,0,0,0-1545.47,2585.956Zm-30.131-2.194-5.707,3.295c-.243.14-.228.375.032.526l6.6,3.808a1,1,0,0,0,.91.019l5.705-3.294c.243-.138.228-.375-.032-.524l-6.6-3.81A1.008,1.008,0,0,0-1575.6,2583.762Zm8.338-4.814-5.705,3.294c-.243.14-.228.375.032.526l6.6,3.808a1,1,0,0,0,.91.019l5.705-3.294c.241-.141.228-.375-.032-.527l-6.6-3.808A1,1,0,0,0-1567.263,2578.948Zm33.357-19.258-5.705,3.294c-.243.141-.228.375.032.524l6.6,3.81a1.017,1.017,0,0,0,.911.019l5.705-3.294c.243-.141.228-.377-.032-.526l-6.6-3.81A1.006,1.006,0,0,0-1533.906,2559.69Zm-8.338,4.814-5.707,3.294c-.241.141-.228.375.032.527l6.6,3.808a1,1,0,0,0,.911.019l5.7-3.294c.243-.14.228-.375-.032-.527l-6.6-3.807A1,1,0,0,0-1542.244,2564.5Zm16.678-9.63-5.707,3.294c-.241.14-.226.375.034.526l6.6,3.81a1.016,1.016,0,0,0,.91.02l5.705-3.3c.243-.139.228-.375-.032-.524l-6.6-3.81A1.019,1.019,0,0,0-1525.565,2554.874Zm-33.357,19.259-5.707,3.3c-.241.138-.228.375.032.524l6.6,3.81a1.018,1.018,0,0,0,.911.02l5.7-3.294c.243-.141.228-.375-.032-.527l-6.6-3.807A1,1,0,0,0-1558.922,2574.132Zm8.338-4.814-5.7,3.293c-.243.141-.228.375.032.527l6.6,3.81a1.009,1.009,0,0,0,.908.02l5.707-3.3c.243-.139.228-.375-.032-.525l-6.6-3.81A1.015,1.015,0,0,0-1550.584,2569.318Zm-6.089,33.99,5.707-3.3c.241-.139.226-.374-.032-.525l-6.6-3.81a1.008,1.008,0,0,0-.91-.017l-5.705,3.293c-.243.139-.228.375.032.524l6.6,3.81A1.011,1.011,0,0,0-1556.673,2603.308Zm-48.935-4.942-6.6-3.809a1.008,1.008,0,0,0-.911-.017l-5.705,3.294c-.243.141-.228.375.032.524l6.6,3.81a1.008,1.008,0,0,0,.911.019l5.707-3.293C-1605.336,2598.752-1605.351,2598.518-1605.609,2598.366Zm12.5,3.669-6.6-3.81a1.01,1.01,0,0,0-.911-.019l-8.779,5.068c-.241.141-.226.375.034.527l6.6,3.808a1,1,0,0,0,.911.019l8.78-5.067C-1592.838,2602.419-1592.853,2602.185-1593.113,2602.036Zm-22.62-11.033-6.6-3.81a1.015,1.015,0,0,0-.911-.02l-7.023,4.055c-.243.141-.228.375.032.527l6.6,3.808a1,1,0,0,0,.911.019l7.023-4.055C-1615.456,2591.388-1615.471,2591.152-1615.733,2591Zm5.385-3.109a1.018,1.018,0,0,0,.911.02l5.705-3.3c.243-.138.228-.373-.032-.524l-6.6-3.81a1.014,1.014,0,0,0-.91-.019l-5.705,3.3c-.243.139-.228.376.032.525Zm28.856,18.316-6.6-3.81a1.013,1.013,0,0,0-.91-.019l-10.973,6.336c-.241.141-.226.375.034.524l6.6,3.81a1.008,1.008,0,0,0,.91.019l10.973-6.336C-1581.216,2606.6-1581.232,2606.36-1581.492,2606.21Zm5.475,7.722-6.6-3.81a1.006,1.006,0,0,0-.91-.017l-7.023,4.053c-.24.141-.226.376.034.527l6.6,3.807a1,1,0,0,0,.91.02l7.023-4.056C-1575.742,2614.318-1575.756,2614.081-1576.017,2613.932Zm27.673-61.836a1,1,0,0,0,.908.019l5.705-3.293c.243-.141.23-.375-.032-.527l-6.6-3.807a1,1,0,0,0-.911-.019l-5.705,3.293c-.243.141-.228.375.032.525Zm-16.681,9.63a1.014,1.014,0,0,0,.911.019l5.707-3.3c.241-.139.226-.375-.034-.524l-6.6-3.81a1.015,1.015,0,0,0-.911-.019l-5.705,3.294c-.243.141-.228.375.03.526Zm-36.986,21.352a1,1,0,0,0,.911.019l5.707-3.293c.241-.139.228-.375-.034-.525l-6.6-3.81a1.014,1.014,0,0,0-.91-.019l-5.707,3.293c-.241.141-.226.375.034.527Zm45.326-26.168a1,1,0,0,0,.911.02l5.705-3.294c.243-.141.228-.375-.032-.527l-6.6-3.808a1,1,0,0,0-.91-.019l-5.705,3.294c-.243.14-.228.375.032.527Zm-16.678,9.631a1.017,1.017,0,0,0,.91.019l5.705-3.294c.243-.14.228-.375-.032-.526l-6.6-3.81a1.008,1.008,0,0,0-.911-.017l-5.705,3.294c-.243.141-.228.375.032.524Zm1.93,48.01a1.007,1.007,0,0,0-.911-.017l-8.78,5.067c-.241.139-.226.376.034.525l6.6,3.81a1.017,1.017,0,0,0,.911.02l8.78-5.07c.241-.139.226-.375-.034-.525Zm-13.9-41.1a1.015,1.015,0,0,0,.91.019l5.707-3.294c.241-.141.226-.375-.034-.527l-6.6-3.81a1.007,1.007,0,0,0-.911-.017l-5.705,3.294c-.243.139-.228.375.032.524Zm-8.338,4.814a1,1,0,0,0,.911.019l5.705-3.294c.243-.14.228-.375-.032-.524l-6.6-3.81a1,1,0,0,0-.91-.02l-5.705,3.294c-.243.141-.228.375.032.527Zm176.733-52.912a1.01,1.01,0,0,0-.91-.02l-14.046,8.11c-.243.139-.228.375.032.524l6.6,3.81a1.006,1.006,0,0,0,.91.017l14.045-8.108c.241-.14.228-.375-.032-.524Zm-18.435,10.643a1.017,1.017,0,0,0-.911-.019l-5.705,3.294c-.243.14-.228.375.032.526l6.6,3.81a1.006,1.006,0,0,0,.911.017l5.705-3.294c.243-.138.228-.375-.032-.524Zm-112.961,62.5,5.705-3.294c.243-.138.228-.375-.032-.524l-6.6-3.81a1.01,1.01,0,0,0-.911-.019l-5.705,3.294c-.243.141-.228.375.032.527l6.6,3.81A1.01,1.01,0,0,0-1548.333,2598.492Zm96.282-52.867a1,1,0,0,0-.91-.02l-5.705,3.294c-.243.141-.228.375.032.527l6.6,3.808a1,1,0,0,0,.91.019l5.705-3.294c.243-.14.228-.375-.032-.527Zm43.452-25.088a1,1,0,0,0-.911-.019l-5.705,3.294c-.241.141-.228.375.032.524l6.6,3.81a1.007,1.007,0,0,0,.91.019l5.705-3.294c.243-.141.228-.375-.032-.526Zm14.939-1.006-16.024-9.251a1,1,0,0,0-.911-.019l-5.705,3.294c-.243.14-.228.375.032.527l16.024,9.25a1.012,1.012,0,0,0,.908.019l5.707-3.3C-1393.384,2519.918-1393.4,2519.681-1393.659,2519.532Zm-89.552,44.085a1,1,0,0,0-.911-.02l-7.023,4.056c-.243.139-.228.375.032.524l6.6,3.81a1.007,1.007,0,0,0,.911.017l7.023-4.053c.243-.141.228-.376-.032-.527Zm21.066-12.165a1.01,1.01,0,0,0-.911-.017l-8.777,5.068c-.243.139-.228.375.032.524l6.6,3.81a1.008,1.008,0,0,0,.91.02l8.777-5.068c.243-.141.228-.375-.032-.527Zm-40.38,23.313a1.009,1.009,0,0,0-.91-.017l-46.964,27.115c-.241.138-.228.375.032.524l6.6,3.81a1.009,1.009,0,0,0,.911.017l46.963-27.113c.243-.14.228-.375-.032-.526Zm-49.6,28.637a1,1,0,0,0-.91-.019l-7.023,4.052c-.243.142-.228.375.032.527l6.6,3.81a1.006,1.006,0,0,0,.91.017l7.023-4.052c.241-.141.228-.375-.032-.527Zm59.252-34.21a1,1,0,0,0-.91-.02l-7.021,4.053c-.243.14-.23.377.032.526l6.6,3.808a1.008,1.008,0,0,0,.91.021l7.023-4.055c.243-.14.228-.375-.032-.526Zm-68.908,39.782a1.01,1.01,0,0,0-.91-.017l-7.023,4.053c-.243.141-.228.375.032.527l6.6,3.81a1.008,1.008,0,0,0,.91.017l7.023-4.053c.241-.141.228-.375-.032-.527Zm88.222-50.933a1,1,0,0,0-.91-.02l-7.023,4.055c-.243.139-.228.375.032.524l6.6,3.81a1.011,1.011,0,0,0,.908.019l7.025-4.055c.241-.14.226-.375-.034-.526Zm29.846-17.233a1.006,1.006,0,0,0-.91-.017l-5.705,3.294c-.243.139-.228.375.032.524l6.6,3.81a1.016,1.016,0,0,0,.911.019l5.707-3.294c.241-.141.226-.375-.034-.526Zm18.271-13.269,5.707-3.295c.24-.14.228-.375-.032-.526l-6.6-3.808a1,1,0,0,0-.91-.02l-5.705,3.294c-.243.138-.228.375.032.524l6.6,3.81A1.006,1.006,0,0,0-1425.438,2527.54Zm-37.284-.241,5.705-3.294c.243-.14.228-.375-.032-.526l-6.6-3.808a1,1,0,0,0-.908-.02l-5.707,3.294c-.243.14-.228.375.034.526l6.6,3.808A1,1,0,0,0-1462.723,2527.3Zm-18.9,32.677,16.678-9.63c.243-.138.228-.375-.032-.524l-6.6-3.81a1.01,1.01,0,0,0-.91-.02l-16.679,9.631c-.241.138-.228.375.034.524l6.6,3.81A1.008,1.008,0,0,0-1481.619,2559.976Zm46.932-27.641a1,1,0,0,0,.91.019l5.705-3.293c.243-.141.228-.375-.032-.527l-6.6-3.807a1,1,0,0,0-.908-.019l-5.707,3.293c-.241.141-.228.375.032.527Zm-8.515-5.422,5.705-3.3c.243-.139.228-.375-.032-.525l-6.6-3.81a1.01,1.01,0,0,0-.91-.017l-5.707,3.294c-.241.139-.228.375.032.524l6.6,3.81A1.012,1.012,0,0,0-1443.2,2526.913Zm-46.755,37.877,5.705-3.294c.243-.141.228-.375-.032-.524l-6.6-3.81a1,1,0,0,0-.911-.019l-5.705,3.293c-.243.141-.228.376.032.527l6.6,3.807A1,1,0,0,0-1489.957,2564.79Zm36.834-21.81a1.008,1.008,0,0,0,.91.017l5.707-3.294c.241-.14.228-.375-.032-.524l-6.6-3.81a1.008,1.008,0,0,0-.911-.019l-5.7,3.294c-.243.141-.228.375.032.527Zm-78.532,45.885,5.705-3.3c.243-.139.228-.373-.032-.524l-6.6-3.81a1.006,1.006,0,0,0-.908-.017l-5.707,3.294c-.243.138-.228.375.032.524l6.6,3.81A1.018,1.018,0,0,0-1531.654,2588.865Zm8.34-4.817,5.705-3.293c.241-.141.228-.375-.032-.524l-6.6-3.81a1.013,1.013,0,0,0-.91-.019l-5.705,3.293c-.243.141-.228.377.032.527l6.6,3.81A1.008,1.008,0,0,0-1523.314,2584.048Zm-16.681,9.63,5.707-3.294c.243-.141.228-.375-.034-.526l-6.6-3.808a1,1,0,0,0-.911-.019l-5.705,3.294c-.243.141-.228.375.032.526l6.6,3.809A1,1,0,0,0-1539.995,2593.678Zm33.357-19.258,5.707-3.294c.243-.141.228-.375-.032-.527l-6.6-3.81a1.006,1.006,0,0,0-.91-.017l-5.705,3.294c-.243.139-.228.375.032.525l6.6,3.81A1.011,1.011,0,0,0-1506.637,2574.42Zm-8.338,4.814,5.705-3.294c.243-.14.228-.375-.032-.527l-6.6-3.807a1,1,0,0,0-.91-.02l-5.705,3.294c-.241.141-.228.375.032.527l6.6,3.807A1,1,0,0,0-1514.976,2579.234Zm16.679-9.63,5.705-3.294c.243-.138.228-.375-.032-.524l-6.6-3.81a1.011,1.011,0,0,0-.908-.019l-5.707,3.294c-.241.14-.228.375.034.526l6.6,3.81A1.006,1.006,0,0,0-1498.3,2569.6Zm38.152-71.226a1,1,0,0,0,.911.02l5.705-3.294c.243-.14.228-.375-.032-.527l-1.754-1.013a1.006,1.006,0,0,0-.912-.019l-5.705,3.293c-.241.141-.228.375.034.525Zm-41.03,26.486a1.009,1.009,0,0,0,.91.017l5.705-3.294c.241-.139.228-.375-.032-.524l-6.6-3.81a1.01,1.01,0,0,0-.911-.019l-5.705,3.3c-.243.139-.228.376.032.525Zm16.678-9.63a1,1,0,0,0,.908.02l5.707-3.294c.241-.14.228-.375-.032-.527l-6.6-3.81a1.01,1.01,0,0,0-.91-.017l-5.705,3.294c-.243.139-.228.375.032.524Zm-26.863,15.508a1,1,0,0,0,.91.019l5.707-3.294c.241-.141.226-.375-.034-.527l-6.6-3.808a1,1,0,0,0-.911-.019l-5.705,3.294c-.243.14-.228.375.032.526Zm18.522-10.694a1,1,0,0,0,.911.019l5.705-3.293c.243-.141.228-.375-.032-.525l-6.6-3.81a1,1,0,0,0-.908-.019l-5.707,3.293c-.241.141-.228.375.032.527Zm-35.2,20.324a1.012,1.012,0,0,0,.911.02l5.705-3.3c.243-.138.228-.375-.032-.525l-6.6-3.81a1.011,1.011,0,0,0-.911-.017l-5.707,3.294c-.241.141-.226.375.034.524Zm8.34-4.813a1.01,1.01,0,0,0,.911.017l5.705-3.294c.243-.138.228-.375-.032-.524l-6.6-3.809a1.007,1.007,0,0,0-.91-.02l-5.705,3.294c-.243.141-.228.375.032.527Zm42.874-27.55a1.015,1.015,0,0,0,.91.019l5.705-3.3c.243-.139.228-.375-.032-.524l-1.757-1.015a1.011,1.011,0,0,0-.908-.02l-5.707,3.3c-.241.139-.228.375.032.524Zm25.019-14.444a1.016,1.016,0,0,0,.911.02l5.705-3.3c.243-.139.228-.375-.032-.524l-1.757-1.015a1.008,1.008,0,0,0-.91-.017l-5.705,3.294c-.243.139-.228.375.032.524Zm13.86,8a1.008,1.008,0,0,0,.91.019l5.705-3.293c.243-.141.228-.375-.032-.527l-6.6-3.81a1.007,1.007,0,0,0-.911-.017l-5.705,3.293c-.243.141-.228.375.032.524Zm20.847,21.16,5.705-3.3c.243-.139.228-.375-.032-.524l-6.6-3.81a1.018,1.018,0,0,0-.911-.019l-5.7,3.294c-.241.141-.228.375.034.526l6.6,3.81A1.014,1.014,0,0,0-1417.1,2522.726Zm-51.385-19.533a1,1,0,0,0,.91.019l5.705-3.293c.243-.141.228-.375-.032-.527l-1.757-1.013a1,1,0,0,0-.911-.019l-5.705,3.294c-.243.14-.228.375.032.527Zm-67.893,41.994a1,1,0,0,0,.91.019l5.705-3.293c.243-.141.228-.375-.032-.527l-6.6-3.808a1,1,0,0,0-.911-.019l-5.705,3.293c-.243.141-.228.375.032.525Z" transform="translate(1689.826 -2271.407)" opacity="0.5" fill="url(#cr)" style="isolation:isolate"/><path d="M-1568.3,2556.288l56.306-32.509a6.79,6.79,0,0,1,6.147,0l32.287,18.64c1.7.981,1.7,2.569,0,3.547l-56.308,32.511a6.8,6.8,0,0,1-6.144,0l-32.287-18.642C-1569.993,2558.855-1569.993,2557.266-1568.3,2556.288Z" transform="translate(1758.727 -2232.452)" fill="#f0f0f0" opacity="0.35"/></g><g transform="translate(-1798.835 2494.92)"><g transform="translate(665.812 280.629)"><circle cx="8.528" cy="8.528" r="8.528" transform="translate(46.904 66.092)" fill="rgba(0,105,255,0.2)"/><circle cx="17.056" cy="17.056" r="17.056" fill="rgba(0,105,255,0.1)"/></g><g transform="translate(6.266 206.171)" opacity="0.19"><rect width="68.725" height="16.133" transform="translate(0.989 168.499) rotate(-90)" fill="#0065ff"/><g transform="translate(0 70.861)"><path d="M-1786.784,2513.273c-5.42,0-9.112-3.573-9.112-8.995s3.693-9,9.112-9c5.306,0,9,3.576,9,9S-1781.477,2513.273-1786.784,2513.273Z" transform="translate(1795.896 -2495.281)" fill="#0065ff"/></g><g transform="translate(0 47.24)"><path d="M-1786.784,2502.2c-5.42,0-9.112-3.575-9.112-9s3.693-9,9.112-9c5.306,0,9,3.576,9,9S-1781.477,2502.2-1786.784,2502.2Z" transform="translate(1795.896 -2484.203)" fill="#0065ff"/></g><g transform="translate(0 23.621)"><path d="M-1786.784,2491.117c-5.42,0-9.112-3.575-9.112-9s3.693-9,9.112-9c5.306,0,9,3.576,9,9S-1781.477,2491.117-1786.784,2491.117Z" transform="translate(1795.896 -2473.124)" fill="#0065ff"/></g><g transform="translate(45.499 11.244)"><path d="M-1765.443,2485.311c-5.42,0-9.112-3.575-9.112-8.995s3.693-9,9.112-9c5.307,0,9,3.575,9,9S-1760.136,2485.311-1765.443,2485.311Z" transform="translate(1774.555 -2467.319)" fill="#0065ff"/></g><g transform="translate(67.26 75.957)"><path d="M-1755.236,2515.664c-5.42,0-9.112-3.576-9.112-9s3.693-8.995,9.112-8.995c5.307,0,9,3.575,9,8.995S-1749.929,2515.664-1755.236,2515.664Z" transform="translate(1764.348 -2497.672)" fill="#0065ff"/></g><g transform="translate(0 176.522)"><path d="M-1786.784,2562.833c-5.42,0-9.112-3.575-9.112-8.995s3.693-9,9.112-9c5.306,0,9,3.575,9,9S-1781.477,2562.833-1786.784,2562.833Z" transform="translate(1795.896 -2544.842)" fill="#0065ff"/></g><rect width="68.725" height="16.133" transform="translate(23.738 144.22) rotate(-90)" fill="#0065ff"/><rect width="68.725" height="16.133" transform="translate(46.487 184.062) rotate(-90)" fill="#0065ff"/><rect width="34.363" height="16.133" transform="translate(46.487 228.706) rotate(-90)" fill="#0065ff"/><rect width="47.144" height="16.133" transform="translate(68.248 68.806) rotate(-90)" fill="#0065ff"/><rect width="68.725" height="16.133" transform="translate(46.487 105.224) rotate(-90)" fill="#0065ff"/><g transform="translate(22.75 47.24)"><path d="M-1776.113,2502.2c-5.422,0-9.112-3.575-9.112-9s3.69-9,9.112-9c5.307,0,8.995,3.576,8.995,9S-1770.806,2502.2-1776.113,2502.2Z" transform="translate(1785.225 -2484.203)" fill="#0065ff"/></g><g transform="translate(22.75 23.621)"><path d="M-1776.113,2491.117c-5.422,0-9.112-3.575-9.112-9s3.69-9,9.112-9c5.307,0,8.995,3.576,8.995,9S-1770.806,2491.117-1776.113,2491.117Z" transform="translate(1785.225 -2473.124)" fill="#0065ff"/></g><g transform="translate(22.75 176.522)"><path d="M-1776.113,2562.833c-5.422,0-9.112-3.575-9.112-8.995s3.69-9,9.112-9c5.307,0,8.995,3.575,8.995,9S-1770.806,2562.833-1776.113,2562.833Z" transform="translate(1785.225 -2544.842)" fill="#0065ff"/></g><g transform="translate(22.75 152.902)"><path d="M-1776.113,2551.754c-5.422,0-9.112-3.575-9.112-8.995s3.69-9,9.112-9c5.307,0,8.995,3.575,8.995,9S-1770.806,2551.754-1776.113,2551.754Z" transform="translate(1785.225 -2533.763)" fill="#0065ff"/></g><g transform="translate(22.75)"><path d="M-1776.113,2480.039c-5.422,0-9.112-3.575-9.112-9s3.69-9,9.112-9c5.307,0,8.995,3.575,8.995,9S-1770.806,2480.039-1776.113,2480.039Z" transform="translate(1785.225 -2462.045)" fill="#0065ff"/></g><line y2="14.391" transform="translate(9.055 165.749)" fill="#0065ff"/><line y2="31.495" transform="translate(54.553 84.952)" fill="#0065ff"/><line y2="31.495" transform="translate(54.553 182.381)" fill="#0065ff"/></g><g transform="translate(74.863 241.52)" opacity="0.19"><rect width="68.725" height="16.133" transform="translate(0.988 168.497) rotate(-90)" fill="#0065ff"/><g transform="translate(0 70.859)"><path d="M-1754.609,2529.855c-5.42,0-9.112-3.575-9.112-9s3.692-9,9.112-9c5.307,0,9,3.575,9,9S-1749.3,2529.855-1754.609,2529.855Z" transform="translate(1763.721 -2511.861)" fill="#0065ff"/></g><g transform="translate(0 47.24)"><path d="M-1754.609,2518.775c-5.42,0-9.112-3.575-9.112-9s3.692-8.995,9.112-8.995c5.307,0,9,3.573,9,8.995S-1749.3,2518.775-1754.609,2518.775Z" transform="translate(1763.721 -2500.783)" fill="#0065ff"/></g><g transform="translate(0 23.621)"><path d="M-1754.609,2507.7c-5.42,0-9.112-3.575-9.112-9s3.692-8.995,9.112-8.995c5.307,0,9,3.573,9,8.995S-1749.3,2507.7-1754.609,2507.7Z" transform="translate(1763.721 -2489.704)" fill="#0065ff"/></g><g transform="translate(45.499 11.242)"><path d="M-1733.268,2501.891c-5.422,0-9.112-3.575-9.112-9s3.69-9,9.112-9c5.307,0,8.995,3.575,8.995,9S-1727.961,2501.891-1733.268,2501.891Z" transform="translate(1742.38 -2483.898)" fill="#0065ff"/></g><g transform="translate(67.26 75.954)"><path d="M-1723.061,2532.243c-5.422,0-9.112-3.576-9.112-9s3.69-9,9.112-9c5.307,0,8.995,3.576,8.995,9S-1717.754,2532.243-1723.061,2532.243Z" transform="translate(1732.173 -2514.25)" fill="#0065ff"/></g><g transform="translate(0 176.52)"><path d="M-1754.609,2579.413c-5.42,0-9.112-3.573-9.112-8.995s3.692-9,9.112-9c5.307,0,9,3.575,9,9S-1749.3,2579.413-1754.609,2579.413Z" transform="translate(1763.721 -2561.421)" fill="#0065ff"/></g><rect width="68.725" height="16.133" transform="translate(23.737 144.218) rotate(-90)" fill="#0065ff"/><rect width="68.725" height="16.133" transform="translate(46.486 184.06) rotate(-90)" fill="#0065ff"/><rect width="34.363" height="16.133" transform="translate(46.486 228.704) rotate(-90)" fill="#0065ff"/><rect width="47.144" height="16.133" transform="translate(68.248 68.804) rotate(-90)" fill="#0065ff"/><rect width="68.725" height="16.133" transform="translate(46.486 105.222) rotate(-90)" fill="#0065ff"/><g transform="translate(22.748 47.24)"><path d="M-1743.938,2518.775c-5.42,0-9.112-3.575-9.112-9s3.693-8.995,9.112-8.995c5.307,0,9,3.573,9,8.995S-1738.632,2518.775-1743.938,2518.775Z" transform="translate(1753.051 -2500.783)" fill="#0065ff"/></g><g transform="translate(22.748 23.621)"><path d="M-1743.938,2507.7c-5.42,0-9.112-3.575-9.112-9s3.693-8.995,9.112-8.995c5.307,0,9,3.573,9,8.995S-1738.632,2507.7-1743.938,2507.7Z" transform="translate(1753.051 -2489.704)" fill="#0065ff"/></g><g transform="translate(22.748 176.52)"><path d="M-1743.938,2579.413c-5.42,0-9.112-3.573-9.112-8.995s3.693-9,9.112-9c5.307,0,9,3.575,9,9S-1738.632,2579.413-1743.938,2579.413Z" transform="translate(1753.051 -2561.421)" fill="#0065ff"/></g><g transform="translate(22.748 152.9)"><path d="M-1743.938,2568.336c-5.42,0-9.112-3.576-9.112-9s3.693-9,9.112-9c5.307,0,9,3.575,9,9S-1738.632,2568.336-1743.938,2568.336Z" transform="translate(1753.051 -2550.342)" fill="#0065ff"/></g><g transform="translate(22.748)"><path d="M-1743.938,2496.616c-5.42,0-9.112-3.575-9.112-9s3.693-8.995,9.112-8.995c5.307,0,9,3.575,9,8.995S-1738.632,2496.616-1743.938,2496.616Z" transform="translate(1753.051 -2478.625)" fill="#0065ff"/></g><line y2="14.391" transform="translate(9.054 165.747)" fill="#0065ff"/><line y2="31.495" transform="translate(54.553 84.95)" fill="#0065ff"/><line y2="31.495" transform="translate(54.553 182.379)" fill="#0065ff"/></g><g transform="translate(163.722 282.128)" opacity="0.19"><rect width="68.725" height="16.133" transform="translate(68.247 168.497) rotate(-90)" fill="#0065ff"/><g transform="translate(67.26 70.858)"><path d="M-1690.494,2539.9c0-5.421,3.691-9,9-9,5.419,0,9.11,3.575,9.11,9s-3.691,9-9.11,9C-1686.8,2548.9-1690.494,2545.326-1690.494,2539.9Z" transform="translate(1690.494 -2530.908)" fill="#0065ff"/></g><g transform="translate(67.26 47.238)"><path d="M-1690.494,2528.826c0-5.422,3.691-9,9-9,5.419,0,9.11,3.575,9.11,9s-3.691,9-9.11,9C-1686.8,2537.822-1690.494,2534.247-1690.494,2528.826Z" transform="translate(1690.494 -2519.829)" fill="#0065ff"/></g><g transform="translate(67.26 23.62)"><path d="M-1690.494,2517.746c0-5.422,3.691-9,9-9,5.419,0,9.11,3.574,9.11,9s-3.691,9-9.11,9C-1686.8,2526.743-1690.494,2523.167-1690.494,2517.746Z" transform="translate(1690.494 -2508.75)" fill="#0065ff"/></g><g transform="translate(21.761 11.242)"><path d="M-1711.835,2511.942c0-5.422,3.69-9,9-9,5.42,0,9.112,3.575,9.112,9s-3.693,9-9.112,9C-1708.144,2520.939-1711.835,2517.364-1711.835,2511.942Z" transform="translate(1711.835 -2502.945)" fill="#0065ff"/></g><g transform="translate(0 75.954)"><path d="M-1722.042,2542.295c0-5.422,3.69-9,9-9,5.419,0,9.112,3.575,9.112,9s-3.693,8.995-9.112,8.995C-1718.351,2551.29-1722.042,2547.715-1722.042,2542.295Z" transform="translate(1722.042 -2533.298)" fill="#0065ff"/></g><g transform="translate(67.26 176.52)"><path d="M-1690.494,2589.465c0-5.422,3.691-9,9-9,5.419,0,9.11,3.575,9.11,9s-3.691,8.995-9.11,8.995C-1686.8,2598.459-1690.494,2594.886-1690.494,2589.465Z" transform="translate(1690.494 -2580.468)" fill="#0065ff"/></g><rect width="68.725" height="16.133" transform="translate(45.498 144.218) rotate(-90)" fill="#0065ff"/><rect width="68.725" height="16.133" transform="translate(0.988 172.105) rotate(-90)" fill="#0065ff"/><rect width="47.144" height="16.133" transform="translate(0.988 68.804) rotate(-90)" fill="#0065ff"/><rect width="68.725" height="16.133" transform="translate(22.749 105.222) rotate(-90)" fill="#0065ff"/><g transform="translate(44.509 47.238)"><path d="M-1701.165,2528.826c0-5.422,3.691-9,9-9,5.422,0,9.112,3.575,9.112,9s-3.69,9-9.112,9C-1697.474,2537.822-1701.165,2534.247-1701.165,2528.826Z" transform="translate(1701.165 -2519.829)" fill="#0065ff"/></g><g transform="translate(44.509 23.62)"><path d="M-1701.165,2517.746c0-5.422,3.691-9,9-9,5.422,0,9.112,3.574,9.112,9s-3.69,9-9.112,9C-1697.474,2526.743-1701.165,2523.167-1701.165,2517.746Z" transform="translate(1701.165 -2508.75)" fill="#0065ff"/></g><g transform="translate(44.509 176.52)"><path d="M-1701.165,2589.465c0-5.422,3.691-9,9-9,5.422,0,9.112,3.575,9.112,9s-3.69,8.995-9.112,8.995C-1697.474,2598.459-1701.165,2594.886-1701.165,2589.465Z" transform="translate(1701.165 -2580.468)" fill="#0065ff"/></g><g transform="translate(0 185.517)"><path d="M-1722.042,2593.685c0-5.422,3.69-9,9-9,5.419,0,9.112,3.575,9.112,9s-3.693,8.995-9.112,8.995C-1718.351,2602.679-1722.042,2599.1-1722.042,2593.685Z" transform="translate(1722.042 -2584.688)" fill="#0065ff"/></g><g transform="translate(44.509 152.899)"><path d="M-1701.165,2578.385c0-5.421,3.691-9,9-9,5.422,0,9.112,3.576,9.112,9s-3.69,8.995-9.112,8.995C-1697.474,2587.38-1701.165,2583.808-1701.165,2578.385Z" transform="translate(1701.165 -2569.388)" fill="#0065ff"/></g><g transform="translate(44.509)"><path d="M-1701.165,2506.667c0-5.42,3.691-8.995,9-8.995,5.422,0,9.112,3.575,9.112,8.995s-3.69,9-9.112,9C-1697.474,2515.664-1701.165,2512.088-1701.165,2506.667Z" transform="translate(1701.165 -2497.672)" fill="#0065ff"/></g><line y2="14.391" transform="translate(76.314 165.747)" fill="#0065ff"/><line y2="31.495" transform="translate(30.815 84.95)" fill="#0065ff"/><line y2="31.495" transform="translate(9.054 170.423)" fill="#0065ff"/></g><g transform="translate(142.123 338.364)" opacity="0.19"><g transform="translate(0 54.293)"><path d="M-1732.173,2558.512c0-5.422,3.69-9,9-9,5.42,0,9.11,3.575,9.11,9s-3.69,8.995-9.11,8.995C-1728.482,2567.507-1732.173,2563.932-1732.173,2558.512Z" transform="translate(1732.173 -2549.514)" fill="#0065ff"/></g><rect width="47.144" height="16.133" transform="translate(0.987 47.144) rotate(-90)" fill="#0065ff"/></g><g transform="translate(0.001 140.92)"><path d="M-1798.835,2466.284l40.129-23.319,26.48-11.526-40.128,23.32Z" transform="translate(1798.835 -2431.439)" fill="url(#cs)"/></g><path d="M-1722.226,2529.877l40.128-23.322-7.088,35.64-40.128,23.319Z" transform="translate(1877.533 -2205.489)" fill="url(#ct)"/><path d="M-1629.052,2548.871a27.032,27.032,0,0,1-4.3,1.985,28.387,28.387,0,0,1-3.428.989c-.228.053-.439.139-.669.183a31.15,31.15,0,0,1-4.2.529c-.288.017-.576.03-.865.041a35.1,35.1,0,0,1-4.266-.083c-.171-.015-.344-.038-.516-.053a41.389,41.389,0,0,1-4.646-.714c-.162-.034-.322-.073-.482-.106a49.139,49.139,0,0,1-4.938-1.382c-.113-.036-.228-.072-.341-.113q-2.62-.9-5.326-2.132l-.358-.168c-1.827-.849-3.68-1.8-5.554-2.883-1.9-1.094-3.765-2.287-5.609-3.565-.113-.079-.222-.158-.335-.238q-2.574-1.8-5.076-3.823c-.19-.151-.38-.31-.572-.465q-2.414-1.983-4.755-4.153l-.564-.527q-2.37-2.232-4.648-4.644c-.124-.132-.252-.264-.377-.4q-2.43-2.594-4.737-5.366l-.051-.064q-2.351-2.833-4.556-5.825c-.06-.079-.111-.16-.171-.24-1.286-1.752-2.524-3.552-3.731-5.373-.793-1.2-1.539-2.437-2.3-3.663-.618-1-1.254-1.982-1.842-3-.283-.486-.552-.985-.827-1.473-.979-1.727-1.932-3.467-2.831-5.228-.092-.186-.192-.369-.286-.554q-1.618-3.218-3.057-6.5c-.049-.115-.1-.23-.147-.346q-1.4-3.213-2.607-6.47c-.049-.135-.1-.273-.154-.411q-1.225-3.326-2.236-6.673c-.043-.139-.081-.275-.119-.411q-.963-3.214-1.714-6.428c-.049-.2-.1-.4-.141-.6q-.762-3.317-1.294-6.607c0-.034-.013-.073-.017-.111-.352-2.208-.612-4.4-.8-6.585-.015-.181-.028-.36-.043-.541-.17-2.177-.264-4.344-.258-6.473s.111-4.174.294-6.151c.015-.177.034-.35.055-.527q.269-2.718.761-5.228c.043-.226.087-.448.132-.671q.505-2.427,1.2-4.655c.089-.277.183-.55.275-.827a41.018,41.018,0,0,1,1.56-3.993c.064-.143.117-.3.185-.437a35.409,35.409,0,0,1,2.249-4.082c.109-.169.235-.313.344-.478a30.482,30.482,0,0,1,2.177-2.876c.277-.324.569-.634.859-.945a28.24,28.24,0,0,1,2.1-2.034c.3-.264.595-.538.906-.783a26.358,26.358,0,0,1,3.241-2.255l-40.131,23.32a26.81,26.81,0,0,0-3.241,2.255c-.309.247-.6.519-.9.783a28.471,28.471,0,0,0-2.1,2.033c-.288.313-.58.621-.859.949a30.8,30.8,0,0,0-2.172,2.865c-.109.168-.237.317-.347.486-.021.039-.053.069-.075.107a34.944,34.944,0,0,0-2.115,3.831c-.021.045-.038.1-.058.143-.068.141-.122.294-.185.437-.386.846-.766,1.7-1.1,2.605-.169.452-.307.931-.463,1.4-.092.271-.186.54-.273.817-.077.252-.171.484-.243.738q-.409,1.394-.746,2.861c-.081.35-.141.712-.213,1.066-.045.218-.089.437-.132.659-.066.341-.143.671-.2,1.017-.154.874-.288,1.769-.4,2.679-.062.5-.107,1.021-.16,1.539-.017.175-.036.345-.051.522-.021.214-.049.42-.066.636q-.109,1.3-.167,2.646-.055,1.33-.062,2.71v.16q0,1.26.032,2.529.041,1.349.128,2.712c.026.412.066.821.1,1.235.015.181.028.358.043.541.028.316.045.634.079.951.085.911.188,1.827.3,2.743.119.938.251,1.874.4,2.817l.015.079.015.094c.143.887.292,1.772.461,2.661q.275,1.458.595,2.922c.073.344.16.687.239,1.028.047.207.094.412.143.616.1.433.194.864.3,1.294.245.989.505,1.983.778,2.972.2.723.416,1.441.633,2.16.039.136.077.269.118.405s.074.264.115.4q.448,1.449.932,2.9c.318.955.652,1.906,1,2.856.062.173.13.344.2.517.049.14.1.281.157.422.222.6.443,1.2.676,1.8q.531,1.359,1.1,2.718c.266.648.548,1.292.827,1.934.051.12.1.237.151.358s.113.262.17.39q.6,1.365,1.237,2.716.695,1.478,1.422,2.942c.075.147.151.29.224.435.1.192.2.384.3.576.4.785.8,1.569,1.213,2.345.514.965,1.064,1.91,1.6,2.863.281.492.546.989.831,1.481.113.192.218.393.333.588.48.819,1.017,1.606,1.516,2.416.755,1.224,1.5,2.451,2.29,3.647.13.2.245.4.377.6q1.631,2.44,3.362,4.791c.055.072.109.151.162.228l.021.029q1.215,1.648,2.475,3.25,1.017,1.292,2.062,2.545l.051.064.036.045q1.065,1.282,2.16,2.529,1.078,1.228,2.179,2.418c.119.128.241.249.362.375s.254.266.377.4c.518.545,1.032,1.1,1.554,1.628q1.17,1.193,2.364,2.335c.243.234.49.457.735.684.183.177.369.343.554.518.39.363.776.733,1.173,1.089q1.234,1.114,2.488,2.173c.367.309.738.6,1.1.9.188.153.373.309.561.458.277.224.552.457.829.679q1.218.959,2.458,1.873c.6.44,1.2.86,1.8,1.278.111.079.217.157.328.234s.2.149.312.219c.787.542,1.582,1.066,2.377,1.574s1.578.983,2.371,1.451c.183.107.367.214.552.32.6.343,1.19.678,1.782,1q1.154.623,2.3,1.191c.493.243.985.465,1.476.693.117.055.239.115.356.168.145.068.294.141.439.2q1.126.508,2.243.952,1.138.455,2.26.854c.13.044.256.079.386.123.113.039.224.075.337.111.508.17,1.019.345,1.522.5q1.171.348,2.318.64c.369.09.731.16,1.1.243.16.035.32.073.48.107.239.051.482.113.716.158.827.164,1.646.3,2.454.407.5.064.985.1,1.478.148.173.017.345.039.516.054s.335.041.5.051c.889.063,1.768.09,2.631.087.384,0,.753-.04,1.128-.053.294-.013.584-.021.874-.043s.607-.015.9-.042a30.564,30.564,0,0,0,3.23-.469.543.543,0,0,1,.058-.015c.234-.047.45-.134.685-.189a28.264,28.264,0,0,0,3.174-.873c.083-.03.158-.081.241-.113a27.092,27.092,0,0,0,4.3-1.985Z" transform="translate(1837.236 -2312.22)" fill="url(#cu)"/><g transform="translate(20.736 7.538)"><path d="M-1789.109,2392.2l40.129-23.319,33.357,32.171-40.128,23.32Z" transform="translate(1789.109 -2368.877)" fill="url(#cv)"/></g><path d="M-1763.764,2406.725c.392-.126.782-.247,1.179-.363,1.6-.475,3.23-.9,4.9-1.222a58.072,58.072,0,0,1,5.927-.844c1.889-.168,3.817-.234,5.774-.23.469,0,.957.036,1.433.047,1.456.036,2.925.109,4.415.239.567.049,1.14.115,1.714.177,1.58.177,3.177.4,4.793.684.354.064.7.109,1.059.177,2.117.4,4.26.88,6.436,1.467l40.128-23.322c-.531-.143-1.064-.28-1.593-.412q-2.229-.56-4.417-.985c-.145-.028-.283-.043-.426-.068-.358-.069-.706-.114-1.062-.177-1.021-.179-2.045-.369-3.051-.506-.584-.079-1.156-.113-1.734-.179s-1.151-.128-1.723-.177c-.42-.039-.853-.1-1.271-.13-1.062-.077-2.1-.083-3.142-.109-.476-.013-.96-.047-1.433-.047-.134,0-.273-.015-.407-.015q-2.724.01-5.358.245h0a58.036,58.036,0,0,0-5.933.844.723.723,0,0,0-.092.013c-1.642.324-3.237.742-4.81,1.2-.394.12-.787.241-1.177.367-.427.136-.864.247-1.284.4-.776.271-1.513.6-2.268.908-.51.207-1.03.393-1.529.612a50.645,50.645,0,0,0-4.62,2.307l-40.128,23.32a50.008,50.008,0,0,1,4.62-2.307c.5-.22,1.017-.4,1.527-.612C-1766.15,2407.561-1764.971,2407.111-1763.764,2406.725Z" transform="translate(1827.556 -2347.918)" fill="url(#cw)"/><path d="M-1667.738,2529.6l40.128-23.32-20.405,28.691-40.128,23.319Z" transform="translate(1924.137 -2205.801)" fill="url(#cx)"/><g transform="translate(230.07 258.461)"><path d="M-1690.921,2509.891l40.128-23.32,26.329,42.015-40.128,23.322Z" transform="translate(1690.921 -2486.571)" fill="url(#cy)"/></g><path d="M-1689.6,2537.51c.13-.634.262-1.267.382-1.913.358-1.906.682-3.85.943-5.85.019-.158.047-.309.068-.467.275-2.17.473-4.408.631-6.685.034-.531.068-1.066.1-1.6.13-2.317.22-4.669.228-7.091s-.07-4.889-.187-7.358c-.023-.46-.038-.921-.066-1.383-.136-2.385-.326-4.793-.574-7.208-.053-.49-.11-.987-.166-1.478-.258-2.339-.561-4.684-.921-7.04-.03-.2-.055-.4-.085-.607q-.652-4.158-1.5-8.343l40.128-23.322q.275,1.359.531,2.72.508,2.712.936,5.409c.013.074.019.149.032.224.03.192.049.384.081.576.228,1.5.448,2.993.638,4.482.109.865.192,1.725.285,2.586.056.488.113.981.166,1.469.036.369.087.737.121,1.106q.246,2.556.405,5.091c.021.342.03.677.047,1.017.028.459.043.917.066,1.38.043.881.1,1.764.122,2.642.051,1.578.07,3.151.066,4.718v.294q-.013,2.533-.117,4.988c-.025.615-.077,1.2-.111,1.808-.029.536-.064,1.071-.1,1.6s-.055,1.051-.1,1.569c-.139,1.691-.311,3.358-.514,4.989,0,.043-.013.081-.017.124-.023.164-.051.32-.073.486-.2,1.5-.409,2.99-.661,4.441-.081.475-.192.923-.279,1.392-.122.649-.252,1.282-.384,1.915-.126.611-.23,1.247-.369,1.844-.3,1.3-.614,2.576-.955,3.825l-40.128,23.319C-1690.423,2541.349-1690,2539.439-1689.6,2537.51Z" transform="translate(1920.991 -2261.398)" fill="url(#cz)"/><path d="M-1713.292,2432.111c.456.475.911.948,1.365,1.433q2.785,2.964,5.49,6.049c.3.347.6.7.9,1.049q2.347,2.721,4.624,5.536c.426.527.855,1.047,1.277,1.575q2.692,3.381,5.292,6.869,2.958,4,5.771,8.145,2.571,3.776,5.016,7.658c.286.456.552.921.836,1.381,1.428,2.3,2.842,4.622,4.2,6.974l40.128-23.32c-.2-.341-.394-.684-.592-1.026-1.164-2-2.375-3.959-3.59-5.918-.29-.469-.563-.949-.857-1.413q-2.351-3.746-4.829-7.4c-.06-.09-.121-.171-.183-.258q-2.814-4.141-5.773-8.149l-.034-.047q-2.175-2.933-4.419-5.784c-.273-.35-.559-.685-.834-1.032-.425-.533-.857-1.06-1.286-1.588-.642-.791-1.277-1.6-1.925-2.377-.882-1.058-1.782-2.094-2.68-3.134-.3-.351-.605-.717-.914-1.071-.137-.157-.273-.321-.412-.479q-2.03-2.316-4.11-4.556c-.318-.344-.646-.67-.964-1.01-.454-.482-.91-.955-1.366-1.431-.652-.684-1.3-1.384-1.959-2.055-.957-.977-1.932-1.921-2.9-2.872-.377-.371-.753-.753-1.132-1.119-.162-.156-.316-.317-.477-.473q-2.306-2.213-4.663-4.334c-.416-.376-.829-.749-1.25-1.117l-40.128,23.322c2.164,1.915,4.294,3.9,6.4,5.931.371.359.735.729,1.1,1.092Q-1715.706,2429.583-1713.292,2432.111Z" transform="translate(1881.647 -2329.709)" fill="url(#da)"/><g transform="translate(108.509)"><path d="M-1747.939,2388.66l40.129-23.319,40.6,23.44-40.129,23.32Z" transform="translate(1747.939 -2365.341)" fill="url(#db)"/></g><path d="M-1688.769,2376.335l6.862,43.67-40.128,23.32-6.862-43.669Z" transform="translate(1878.004 -2352.895)" fill="url(#dc)"/><g transform="translate(236.551 132.139)"><path d="M-1687.882,2450.64l40.128-23.32,20.177,52.1-40.129,23.319Z" transform="translate(1687.882 -2427.32)" fill="url(#dd)"/></g><path d="M-1663.433,2424.323l33.429,6.388-40.128,23.32-33.43-6.388Z" transform="translate(1906.683 -2298.573)" fill="url(#de)"/><g transform="translate(0 23.32)"><path d="M-1565.09,2605.463a112.438,112.438,0,0,1-3.675,29.276l26.33,42.019-20.407,28.688-33.357-32.172c-12.928,7.369-29.172,8.985-47.328,4.072l-7.087,35.638-40.6-23.441-6.863-43.689c-18.126-16.036-34.306-36.371-47.154-58.621l-33.429-6.389-20.177-52.121,26.481-11.526a166.391,166.391,0,0,1-3.5-33.417,112.659,112.659,0,0,1,3.673-29.278l-26.326-42.015,20.4-28.671,33.357,32.172c12.933-7.386,29.172-8.985,47.332-4.091l7.085-35.619,40.6,23.439,6.859,43.671c18.126,16.058,34.308,36.372,47.153,58.64l33.43,6.388,20.177,52.1-26.479,11.528A166.537,166.537,0,0,1-1565.09,2605.463Zm-105.57,3.558c30.963,17.877,56.127,3.52,56.231-32.046s-24.9-78.865-55.869-96.741c-30.948-17.87-56.112-3.528-56.212,32.033s24.9,78.885,55.849,96.754" transform="translate(1798.835 -2376.279)" fill="url(#df)"/></g></g></g></svg>